<svg width="3102" height="654" viewBox="0 0 3102 654" fill="none" xmlns="http://www.w3.org/2000/svg">
<rect width="3102" height="654" rx="45" fill="white"/>
<path d="M268.285 296.522C130.099 269.162 145.569 316.095 124.873 351.436C97.7633 397.736 92.1477 407.143 92.1477 407.143L580.399 535.631C718.586 562.991 751.005 504.126 771.701 468.785C798.811 422.485 808.466 403.476 808.466 403.476L268.285 296.522Z" fill="#9C27B0" fill-opacity="0.3"/>
<path d="M273.393 262.671C132.152 248.712 146.118 312.381 128.893 349.546C106.332 398.237 96.0155 409.063 96.0155 409.063L610.071 470.692C751.311 484.651 777.943 422.944 795.168 385.779C817.729 337.088 825.513 317.239 825.513 317.239L273.393 262.671Z" fill="#9C27B0" fill-opacity="0.3"/>
<path d="M285.286 228.592C146.195 228.592 126.261 295.039 113.1 335.181C95.8618 387.769 90.2122 409.063 90.2122 409.063H633.927C773.017 409.063 792.951 342.616 806.112 302.475C823.35 249.886 829 228.592 829 228.592H285.286Z" fill="#9C27B0"/>
<ellipse rx="100.189" ry="99.4585" transform="matrix(0.999996 -0.00277526 0.00281617 0.999996 662.576 174.736)" fill="#00BCD4"/>
<path d="M1950.5 563.197C1949.54 562.92 1948.84 562.58 1948.39 562.178C1947.96 561.771 1947.74 561.271 1947.74 560.678C1947.74 560.006 1948.01 559.451 1948.54 559.014C1949.08 558.572 1949.78 558.352 1950.64 558.352C1951.22 558.352 1951.75 558.465 1952.2 558.691C1952.66 558.918 1953.02 559.23 1953.27 559.629C1953.52 560.027 1953.65 560.463 1953.65 560.936H1952.52C1952.52 560.42 1952.36 560.016 1952.03 559.723C1951.7 559.426 1951.24 559.277 1950.64 559.277C1950.08 559.277 1949.65 559.4 1949.34 559.646C1949.03 559.889 1948.88 560.227 1948.88 560.66C1948.88 561.008 1949.02 561.303 1949.31 561.545C1949.61 561.783 1950.11 562.002 1950.82 562.201C1951.53 562.4 1952.09 562.621 1952.48 562.863C1952.89 563.102 1953.18 563.381 1953.38 563.701C1953.57 564.021 1953.67 564.398 1953.67 564.832C1953.67 565.523 1953.4 566.078 1952.86 566.496C1952.32 566.91 1951.6 567.117 1950.7 567.117C1950.11 567.117 1949.56 567.006 1949.06 566.783C1948.55 566.557 1948.16 566.248 1947.88 565.857C1947.61 565.467 1947.47 565.023 1947.47 564.527H1948.6C1948.6 565.043 1948.79 565.451 1949.17 565.752C1949.55 566.049 1950.06 566.197 1950.7 566.197C1951.29 566.197 1951.75 566.076 1952.06 565.834C1952.38 565.592 1952.54 565.262 1952.54 564.844C1952.54 564.426 1952.39 564.104 1952.1 563.877C1951.8 563.646 1951.27 563.42 1950.5 563.197Z" fill="black"/>
<path d="M1043.39 405.945C1043.39 396.18 1039.68 388.628 1032.26 383.289C1024.97 377.82 1012.14 373.133 993.781 369.227C975.552 365.32 961.034 360.633 950.227 355.164C939.549 349.695 931.607 343.185 926.398 335.633C921.32 328.081 918.781 319.096 918.781 308.68C918.781 291.362 926.073 276.714 940.656 264.734C955.37 252.755 974.12 246.766 996.906 246.766C1020.86 246.766 1040.27 252.951 1055.11 265.32C1070.08 277.69 1077.57 293.51 1077.57 312.781H1041.24C1041.24 302.885 1037.01 294.357 1028.55 287.195C1020.21 280.034 1009.67 276.453 996.906 276.453C983.755 276.453 973.469 279.318 966.047 285.047C958.625 290.776 954.914 298.263 954.914 307.508C954.914 316.232 958.365 322.807 965.266 327.234C972.167 331.661 984.602 335.893 1002.57 339.93C1020.67 343.966 1035.32 348.784 1046.52 354.383C1057.71 359.982 1065.98 366.753 1071.32 374.695C1076.79 382.508 1079.52 392.078 1079.52 403.406C1079.52 422.286 1071.97 437.456 1056.87 448.914C1041.76 460.242 1022.17 465.906 998.078 465.906C981.151 465.906 966.177 462.911 953.156 456.922C940.135 450.932 929.914 442.599 922.492 431.922C915.201 421.115 911.555 409.461 911.555 396.961H947.688C948.339 409.07 953.156 418.706 962.141 425.867C971.255 432.898 983.234 436.414 998.078 436.414C1011.75 436.414 1022.69 433.68 1030.89 428.211C1039.22 422.612 1043.39 415.19 1043.39 405.945ZM1305.11 358.68C1305.11 390.841 1297.75 416.753 1283.04 436.414C1268.33 456.076 1248.4 465.906 1223.27 465.906C1197.62 465.906 1177.44 457.768 1162.73 441.492V543.25H1126.59V250.672H1159.6L1161.36 274.109C1176.07 255.88 1196.52 246.766 1222.69 246.766C1248.08 246.766 1268.13 256.336 1282.84 275.477C1297.69 294.617 1305.11 321.245 1305.11 355.359V358.68ZM1268.98 354.578C1268.98 330.75 1263.9 311.935 1253.74 298.133C1243.59 284.331 1229.65 277.43 1211.95 277.43C1190.07 277.43 1173.66 287.13 1162.73 306.531V407.508C1173.53 426.779 1190.07 436.414 1212.34 436.414C1229.65 436.414 1243.39 429.578 1253.55 415.906C1263.83 402.104 1268.98 381.661 1268.98 354.578ZM1453.35 283.094C1447.88 282.182 1441.96 281.727 1435.58 281.727C1411.88 281.727 1395.8 291.818 1387.34 312V462H1351.2V250.672H1386.36L1386.95 275.086C1398.79 256.206 1415.59 246.766 1437.34 246.766C1444.37 246.766 1449.71 247.677 1453.35 249.5V283.094ZM1526.01 462H1489.88V250.672H1526.01V462ZM1486.95 194.617C1486.95 188.758 1488.7 183.81 1492.22 179.773C1495.86 175.737 1501.2 173.719 1508.23 173.719C1515.27 173.719 1520.6 175.737 1524.25 179.773C1527.9 183.81 1529.72 188.758 1529.72 194.617C1529.72 200.477 1527.9 205.359 1524.25 209.266C1520.6 213.172 1515.27 215.125 1508.23 215.125C1501.2 215.125 1495.86 213.172 1492.22 209.266C1488.7 205.359 1486.95 200.477 1486.95 194.617ZM1618.2 250.672L1619.37 277.234C1635.51 256.922 1656.61 246.766 1682.65 246.766C1727.31 246.766 1749.84 271.961 1750.23 322.352V462H1714.09V322.156C1713.96 306.922 1710.45 295.659 1703.55 288.367C1696.78 281.076 1686.16 277.43 1671.71 277.43C1659.99 277.43 1649.71 280.555 1640.85 286.805C1632 293.055 1625.1 301.258 1620.15 311.414V462H1584.02V250.672H1618.2ZM1796.12 354.578C1796.12 321.635 1803.74 295.464 1818.98 276.062C1834.21 256.531 1854.39 246.766 1879.52 246.766C1905.3 246.766 1925.42 255.88 1939.88 274.109L1941.63 250.672H1974.64V456.922C1974.64 484.266 1966.5 505.815 1950.23 521.57C1934.08 537.326 1912.34 545.203 1884.99 545.203C1869.76 545.203 1854.85 541.948 1840.27 535.438C1825.68 528.927 1814.55 520.008 1806.87 508.68L1825.62 487C1841.11 506.141 1860.06 515.711 1882.45 515.711C1900.03 515.711 1913.7 510.763 1923.47 500.867C1933.36 490.971 1938.31 477.039 1938.31 459.07V440.906C1923.86 457.573 1904.13 465.906 1879.13 465.906C1854.39 465.906 1834.34 455.945 1818.98 436.023C1803.74 416.102 1796.12 388.953 1796.12 354.578ZM1832.45 358.68C1832.45 382.508 1837.34 401.258 1847.1 414.93C1856.87 428.471 1870.54 435.242 1888.12 435.242C1910.9 435.242 1927.64 424.891 1938.31 404.188V307.703C1927.24 287.521 1910.64 277.43 1888.51 277.43C1870.93 277.43 1857.19 284.266 1847.3 297.938C1837.4 311.609 1832.45 331.857 1832.45 358.68Z" fill="black"/>
<path d="M2208.23 358.68C2208.23 390.971 2200.81 416.948 2185.97 436.609C2171.12 456.141 2151.2 465.906 2126.2 465.906C2099.51 465.906 2078.87 456.466 2064.29 437.586L2062.53 462H2029.33V162H2065.46V273.914C2080.04 255.815 2100.16 246.766 2125.81 246.766C2151.46 246.766 2171.58 256.466 2186.16 275.867C2200.88 295.268 2208.23 321.831 2208.23 355.555V358.68ZM2172.1 354.578C2172.1 329.969 2167.35 310.958 2157.84 297.547C2148.34 284.135 2134.67 277.43 2116.83 277.43C2093 277.43 2075.88 288.497 2065.46 310.633V402.039C2076.53 424.174 2093.78 435.242 2117.22 435.242C2134.54 435.242 2148.01 428.536 2157.65 415.125C2167.28 401.714 2172.1 381.531 2172.1 354.578ZM2244.37 354.383C2244.37 333.68 2248.4 315.06 2256.48 298.523C2264.68 281.987 2276.01 269.227 2290.46 260.242C2305.04 251.258 2321.65 246.766 2340.27 246.766C2369.04 246.766 2392.28 256.727 2409.99 276.648C2427.83 296.57 2436.75 323.068 2436.75 356.141V358.68C2436.75 379.253 2432.78 397.742 2424.84 414.148C2417.02 430.424 2405.76 443.12 2391.05 452.234C2376.46 461.349 2359.67 465.906 2340.66 465.906C2312.01 465.906 2288.77 455.945 2270.93 436.023C2253.22 416.102 2244.37 389.734 2244.37 356.922V354.383ZM2280.7 358.68C2280.7 382.117 2286.1 400.932 2296.91 415.125C2307.84 429.318 2322.43 436.414 2340.66 436.414C2359.02 436.414 2373.6 429.253 2384.41 414.93C2395.21 400.477 2400.62 380.294 2400.62 354.383C2400.62 331.206 2395.08 312.456 2384.02 298.133C2373.08 283.68 2358.49 276.453 2340.27 276.453C2322.43 276.453 2308.04 283.549 2297.1 297.742C2286.16 311.935 2280.7 332.247 2280.7 358.68ZM2612.53 462C2610.45 457.833 2608.76 450.411 2607.45 439.734C2590.66 457.182 2570.6 465.906 2547.3 465.906C2526.46 465.906 2509.34 460.047 2495.93 448.328C2482.65 436.479 2476.01 421.505 2476.01 403.406C2476.01 381.401 2484.34 364.344 2501.01 352.234C2517.8 339.995 2541.37 333.875 2571.71 333.875H2606.87V317.273C2606.87 304.643 2603.09 294.617 2595.54 287.195C2587.99 279.643 2576.85 275.867 2562.14 275.867C2549.25 275.867 2538.44 279.122 2529.72 285.633C2520.99 292.143 2516.63 300.021 2516.63 309.266H2480.3C2480.3 298.719 2484.02 288.562 2491.44 278.797C2498.99 268.901 2509.15 261.089 2521.91 255.359C2534.8 249.63 2548.92 246.766 2564.29 246.766C2588.64 246.766 2607.71 252.885 2621.52 265.125C2635.32 277.234 2642.48 293.966 2643 315.32V412.586C2643 431.987 2645.47 447.417 2650.42 458.875V462H2612.53ZM2552.57 434.461C2563.9 434.461 2574.64 431.531 2584.8 425.672C2594.95 419.812 2602.31 412.195 2606.87 402.82V359.461H2578.55C2534.28 359.461 2512.14 372.417 2512.14 398.328C2512.14 409.656 2515.92 418.51 2523.47 424.891C2531.02 431.271 2540.72 434.461 2552.57 434.461ZM2801.79 283.094C2796.32 282.182 2790.4 281.727 2784.02 281.727C2760.32 281.727 2744.24 291.818 2735.77 312V462H2699.64V250.672H2734.8L2735.38 275.086C2747.23 256.206 2764.03 246.766 2785.77 246.766C2792.8 246.766 2798.14 247.677 2801.79 249.5V283.094ZM2822.49 354.578C2822.49 322.156 2830.17 296.115 2845.54 276.453C2860.9 256.661 2881.02 246.766 2905.89 246.766C2930.63 246.766 2950.23 255.229 2964.68 272.156V162H3000.81V462H2967.61L2965.85 439.344C2951.4 457.052 2931.28 465.906 2905.5 465.906C2881.02 465.906 2861.03 455.88 2845.54 435.828C2830.17 415.776 2822.49 389.604 2822.49 357.312V354.578ZM2858.62 358.68C2858.62 382.638 2863.57 401.388 2873.47 414.93C2883.36 428.471 2897.04 435.242 2914.48 435.242C2937.4 435.242 2954.13 424.956 2964.68 404.383V307.312C2953.87 287.391 2937.27 277.43 2914.88 277.43C2897.17 277.43 2883.36 284.266 2873.47 297.938C2863.57 311.609 2858.62 331.857 2858.62 358.68Z" fill="#9C27B0"/>
<path d="M1032.26 383.289L1031.66 384.089L1031.67 384.095L1031.67 384.101L1032.26 383.289ZM993.781 369.227L993.572 370.204L993.573 370.205L993.781 369.227ZM950.227 355.164L949.771 356.054L949.775 356.056L950.227 355.164ZM926.398 335.633L925.569 336.191L925.575 336.201L926.398 335.633ZM940.656 264.734L940.025 263.959L940.022 263.962L940.656 264.734ZM1055.11 265.32L1054.47 266.089L1054.47 266.091L1055.11 265.32ZM1077.57 312.781V313.781H1078.57V312.781H1077.57ZM1041.24 312.781H1040.24V313.781H1041.24V312.781ZM1028.55 287.195L1027.9 287.954L1027.9 287.959L1028.55 287.195ZM1002.57 339.93L1002.35 340.905L1002.35 340.906L1002.57 339.93ZM1071.32 374.695L1070.49 375.253L1070.5 375.261L1070.5 375.269L1071.32 374.695ZM1056.87 448.914L1057.47 449.714L1057.47 449.711L1056.87 448.914ZM953.156 456.922L952.738 457.83L953.156 456.922ZM922.492 431.922L921.663 432.481L921.671 432.493L922.492 431.922ZM911.555 396.961V395.961H910.555V396.961H911.555ZM947.688 396.961L948.686 396.907L948.635 395.961H947.688V396.961ZM962.141 425.867L961.517 426.649L961.524 426.654L961.53 426.659L962.141 425.867ZM1030.89 428.211L1031.45 429.043L1031.45 429.041L1030.89 428.211ZM1044.39 405.945C1044.39 395.884 1040.55 388.018 1032.84 382.477L1031.67 384.101C1038.81 389.237 1042.39 396.476 1042.39 405.945H1044.39ZM1032.86 382.489C1025.38 376.882 1012.37 372.16 993.989 368.248L993.573 370.205C1011.91 374.106 1024.55 378.759 1031.66 384.089L1032.86 382.489ZM993.991 368.249C975.806 364.352 961.379 359.687 950.678 354.272L949.775 356.056C960.688 361.579 975.298 366.289 993.572 370.204L993.991 368.249ZM950.682 354.274C940.109 348.858 932.312 342.446 927.222 335.065L925.575 336.201C930.902 343.924 938.99 350.532 949.771 356.054L950.682 354.274ZM927.228 335.075C922.277 327.711 919.781 318.927 919.781 308.68H917.781C917.781 319.266 920.364 328.451 925.569 336.191L927.228 335.075ZM919.781 308.68C919.781 291.691 926.915 277.316 941.291 265.507L940.022 263.962C925.231 276.111 917.781 291.033 917.781 308.68H919.781ZM941.288 265.51C955.789 253.704 974.302 247.766 996.906 247.766V245.766C973.938 245.766 954.951 251.807 940.025 263.959L941.288 265.51ZM996.906 247.766C1020.69 247.766 1039.85 253.902 1054.47 266.089L1055.75 264.552C1040.69 251.999 1021.04 245.766 996.906 245.766V247.766ZM1054.47 266.091C1069.22 278.273 1076.57 293.811 1076.57 312.781H1078.57C1078.57 293.209 1070.95 277.107 1055.75 264.549L1054.47 266.091ZM1077.57 311.781H1041.24V313.781H1077.57V311.781ZM1042.24 312.781C1042.24 302.554 1037.85 293.758 1029.19 286.432L1027.9 287.959C1036.17 294.956 1040.24 303.217 1040.24 312.781H1042.24ZM1029.2 286.437C1020.66 279.095 1009.87 275.453 996.906 275.453V277.453C1009.47 277.453 1019.77 280.973 1027.9 287.954L1029.2 286.437ZM996.906 275.453C983.621 275.453 973.091 278.346 965.436 284.255L966.658 285.838C973.846 280.289 983.889 277.453 996.906 277.453V275.453ZM965.436 284.255C957.773 290.171 953.914 297.948 953.914 307.508H955.914C955.914 298.578 959.477 291.381 966.658 285.838L965.436 284.255ZM953.914 307.508C953.914 316.546 957.517 323.451 964.726 328.076L965.806 326.393C959.213 322.163 955.914 315.917 955.914 307.508H953.914ZM964.726 328.076C971.787 332.606 984.375 336.867 1002.35 340.905L1002.79 338.954C984.828 334.919 972.546 330.717 965.806 326.393L964.726 328.076ZM1002.35 340.906C1020.41 344.932 1034.97 349.728 1046.07 355.277L1046.96 353.488C1035.67 347.84 1020.93 343 1002.79 338.954L1002.35 340.906ZM1046.07 355.277C1057.16 360.822 1065.27 367.491 1070.49 375.253L1072.15 374.137C1066.69 366.014 1058.27 359.141 1046.96 353.488L1046.07 355.277ZM1070.5 375.269C1075.83 382.884 1078.52 392.244 1078.52 403.406H1080.52C1080.52 391.912 1077.75 382.132 1072.14 374.122L1070.5 375.269ZM1078.52 403.406C1078.52 421.972 1071.12 436.847 1056.26 448.117L1057.47 449.711C1072.82 438.064 1080.52 422.601 1080.52 403.406H1078.52ZM1056.27 448.114C1041.38 459.28 1022.01 464.906 998.078 464.906V466.906C1022.32 466.906 1042.15 461.204 1057.47 449.714L1056.27 448.114ZM998.078 464.906C981.269 464.906 966.442 461.933 953.574 456.013L952.738 457.83C965.912 463.89 981.033 466.906 998.078 466.906V464.906ZM953.574 456.013C940.698 450.091 930.623 441.867 923.313 431.351L921.671 432.493C929.205 443.331 939.572 451.774 952.738 457.83L953.574 456.013ZM923.321 431.363C916.136 420.713 912.555 409.253 912.555 396.961H910.555C910.555 409.669 914.265 421.516 921.663 432.481L923.321 431.363ZM911.555 397.961H947.688V395.961H911.555V397.961ZM946.689 397.015C947.354 409.391 952.296 419.299 961.517 426.649L962.764 425.085C954.017 418.113 949.323 408.749 948.686 396.907L946.689 397.015ZM961.53 426.659C970.864 433.86 983.078 437.414 998.078 437.414V435.414C983.391 435.414 971.646 431.937 962.751 425.075L961.53 426.659ZM998.078 437.414C1011.87 437.414 1023.03 434.656 1031.45 429.043L1030.34 427.379C1022.35 432.703 1011.63 435.414 998.078 435.414V437.414ZM1031.45 429.041C1040.03 423.275 1044.39 415.556 1044.39 405.945H1042.39C1042.39 414.825 1038.42 421.949 1030.33 427.381L1031.45 429.041ZM1162.73 441.492L1163.47 440.822L1161.73 438.895V441.492H1162.73ZM1162.73 543.25V544.25H1163.73V543.25H1162.73ZM1126.59 543.25H1125.59V544.25H1126.59V543.25ZM1126.59 250.672V249.672H1125.59V250.672H1126.59ZM1159.6 250.672L1160.6 250.597L1160.53 249.672H1159.6V250.672ZM1161.36 274.109L1160.36 274.184L1160.55 276.703L1162.14 274.737L1161.36 274.109ZM1282.84 275.477L1282.05 276.086L1282.05 276.089L1282.84 275.477ZM1162.73 306.531L1161.86 306.04L1161.73 306.269V306.531H1162.73ZM1162.73 407.508H1161.73V407.769L1161.85 407.997L1162.73 407.508ZM1253.55 415.906L1252.75 415.309L1252.74 415.31L1253.55 415.906ZM1304.11 358.68C1304.11 390.692 1296.79 416.373 1282.24 435.815L1283.84 437.013C1298.72 417.132 1306.11 390.99 1306.11 358.68H1304.11ZM1282.24 435.815C1267.72 455.217 1248.1 464.906 1223.27 464.906V466.906C1248.71 466.906 1268.93 456.934 1283.84 437.013L1282.24 435.815ZM1223.27 464.906C1197.85 464.906 1177.96 456.852 1163.47 440.822L1161.98 442.163C1176.92 458.685 1197.39 466.906 1223.27 466.906V464.906ZM1161.73 441.492V543.25H1163.73V441.492H1161.73ZM1162.73 542.25H1126.59V544.25H1162.73V542.25ZM1127.59 543.25V250.672H1125.59V543.25H1127.59ZM1126.59 251.672H1159.6V249.672H1126.59V251.672ZM1158.6 250.747L1160.36 274.184L1162.36 274.035L1160.6 250.597L1158.6 250.747ZM1162.14 274.737C1176.64 256.773 1196.78 247.766 1222.69 247.766V245.766C1196.25 245.766 1175.51 254.987 1160.58 273.481L1162.14 274.737ZM1222.69 247.766C1247.79 247.766 1267.54 257.206 1282.05 276.086L1283.64 274.867C1268.72 255.466 1248.37 245.766 1222.69 245.766V247.766ZM1282.05 276.089C1296.72 294.996 1304.11 321.378 1304.11 355.359H1306.11C1306.11 321.111 1298.66 294.239 1283.63 274.864L1282.05 276.089ZM1304.11 355.359V358.68H1306.11V355.359H1304.11ZM1269.98 354.578C1269.98 330.618 1264.87 311.57 1254.55 297.54L1252.94 298.725C1262.93 312.3 1267.98 330.882 1267.98 354.578H1269.98ZM1254.55 297.54C1244.2 283.472 1229.96 276.43 1211.95 276.43V278.43C1229.35 278.43 1242.98 285.189 1252.94 298.725L1254.55 297.54ZM1211.95 276.43C1189.7 276.43 1172.97 286.332 1161.86 306.04L1163.6 307.022C1174.36 287.929 1190.44 278.43 1211.95 278.43V276.43ZM1161.73 306.531V407.508H1163.73V306.531H1161.73ZM1161.85 407.997C1167.33 417.764 1174.29 425.131 1182.73 430.052C1191.18 434.972 1201.06 437.414 1212.34 437.414V435.414C1201.35 435.414 1191.83 433.038 1183.74 428.323C1175.65 423.609 1168.93 416.523 1163.6 407.019L1161.85 407.997ZM1212.34 437.414C1229.96 437.414 1244 430.433 1254.35 416.503L1252.74 415.31C1242.78 428.723 1229.34 435.414 1212.34 435.414V437.414ZM1254.35 416.504C1264.82 402.455 1269.98 381.762 1269.98 354.578H1267.98C1267.98 381.561 1262.85 401.753 1252.75 415.309L1254.35 416.504ZM1453.35 283.094L1453.19 284.08L1454.35 284.274V283.094H1453.35ZM1387.34 312L1386.41 311.613L1386.34 311.799V312H1387.34ZM1387.34 462V463H1388.34V462H1387.34ZM1351.2 462H1350.2V463H1351.2V462ZM1351.2 250.672V249.672H1350.2V250.672H1351.2ZM1386.36 250.672L1387.36 250.648L1387.34 249.672H1386.36V250.672ZM1386.95 275.086L1385.95 275.11L1386.03 278.433L1387.79 275.618L1386.95 275.086ZM1453.35 249.5H1454.35V248.882L1453.8 248.606L1453.35 249.5ZM1453.52 282.107C1447.99 281.186 1442.01 280.727 1435.58 280.727V282.727C1441.91 282.727 1447.78 283.179 1453.19 284.08L1453.52 282.107ZM1435.58 280.727C1423.59 280.727 1413.45 283.28 1405.21 288.448C1396.97 293.619 1390.71 301.362 1386.41 311.613L1388.26 312.387C1392.42 302.456 1398.44 295.062 1406.28 290.142C1414.12 285.218 1423.87 282.727 1435.58 282.727V280.727ZM1386.34 312V462H1388.34V312H1386.34ZM1387.34 461H1351.2V463H1387.34V461ZM1352.2 462V250.672H1350.2V462H1352.2ZM1351.2 251.672H1386.36V249.672H1351.2V251.672ZM1385.36 250.696L1385.95 275.11L1387.95 275.062L1387.36 250.648L1385.36 250.696ZM1387.79 275.618C1399.46 257.02 1415.95 247.766 1437.34 247.766V245.766C1415.24 245.766 1398.12 255.392 1386.1 274.554L1387.79 275.618ZM1437.34 247.766C1444.31 247.766 1449.46 248.674 1452.9 250.394L1453.8 248.606C1449.95 246.68 1444.43 245.766 1437.34 245.766V247.766ZM1452.35 249.5V283.094H1454.35V249.5H1452.35ZM1526.01 462V463H1527.01V462H1526.01ZM1489.88 462H1488.88V463H1489.88V462ZM1489.88 250.672V249.672H1488.88V250.672H1489.88ZM1526.01 250.672H1527.01V249.672H1526.01V250.672ZM1492.22 179.773L1491.48 179.103L1491.47 179.11L1491.46 179.117L1492.22 179.773ZM1524.25 179.773L1523.51 180.444L1524.25 179.773ZM1524.25 209.266L1523.52 208.583L1524.25 209.266ZM1492.22 209.266L1491.48 209.935L1491.48 209.941L1491.49 209.948L1492.22 209.266ZM1526.01 461H1489.88V463H1526.01V461ZM1490.88 462V250.672H1488.88V462H1490.88ZM1489.88 251.672H1526.01V249.672H1489.88V251.672ZM1525.01 250.672V462H1527.01V250.672H1525.01ZM1487.95 194.617C1487.95 188.975 1489.63 184.267 1492.97 180.43L1491.46 179.117C1487.78 183.353 1485.95 188.541 1485.95 194.617H1487.95ZM1492.96 180.444C1496.37 176.675 1501.4 174.719 1508.23 174.719V172.719C1501.01 172.719 1495.36 174.799 1491.48 179.103L1492.96 180.444ZM1508.23 174.719C1515.07 174.719 1520.1 176.675 1523.51 180.444L1524.99 179.103C1521.1 174.799 1515.46 172.719 1508.23 172.719V174.719ZM1523.51 180.444C1526.97 184.282 1528.72 188.985 1528.72 194.617H1530.72C1530.72 188.531 1528.82 183.338 1524.99 179.103L1523.51 180.444ZM1528.72 194.617C1528.72 200.25 1526.97 204.881 1523.52 208.583L1524.98 209.948C1528.82 205.838 1530.72 200.703 1530.72 194.617H1528.72ZM1523.52 208.583C1520.12 212.228 1515.08 214.125 1508.23 214.125V216.125C1515.45 216.125 1521.09 214.115 1524.98 209.948L1523.52 208.583ZM1508.23 214.125C1501.39 214.125 1496.35 212.228 1492.95 208.583L1491.49 209.948C1495.38 214.115 1501.02 216.125 1508.23 216.125V214.125ZM1492.96 208.597C1489.63 204.896 1487.95 200.26 1487.95 194.617H1485.95C1485.95 200.693 1487.78 205.823 1491.48 209.935L1492.96 208.597ZM1618.2 250.672L1619.19 250.628L1619.15 249.672H1618.2V250.672ZM1619.37 277.234L1618.37 277.278L1618.49 279.95L1620.15 277.857L1619.37 277.234ZM1750.23 322.352H1751.23L1751.23 322.344L1750.23 322.352ZM1750.23 462V463H1751.23V462H1750.23ZM1714.09 462H1713.09V463H1714.09V462ZM1714.09 322.156H1715.09L1715.09 322.148L1714.09 322.156ZM1703.55 288.367L1702.81 289.048L1702.82 289.055L1703.55 288.367ZM1620.15 311.414L1619.25 310.976L1619.15 311.183V311.414H1620.15ZM1620.15 462V463H1621.15V462H1620.15ZM1584.02 462H1583.02V463H1584.02V462ZM1584.02 250.672V249.672H1583.02V250.672H1584.02ZM1617.2 250.716L1618.37 277.278L1620.37 277.19L1619.19 250.628L1617.2 250.716ZM1620.15 277.857C1636.11 257.784 1656.91 247.766 1682.65 247.766V245.766C1656.3 245.766 1634.92 256.06 1618.58 276.612L1620.15 277.857ZM1682.65 247.766C1704.79 247.766 1721.28 254.006 1732.29 266.329C1743.33 278.674 1749.03 297.291 1749.23 322.359L1751.23 322.344C1751.03 297.021 1745.27 277.846 1733.78 264.996C1722.28 252.123 1705.17 245.766 1682.65 245.766V247.766ZM1749.23 322.352V462H1751.23V322.352H1749.23ZM1750.23 461H1714.09V463H1750.23V461ZM1715.09 462V322.156H1713.09V462H1715.09ZM1715.09 322.148C1714.96 306.788 1711.42 295.23 1704.27 287.68L1702.82 289.055C1709.48 296.087 1712.96 307.056 1713.09 322.165L1715.09 322.148ZM1704.28 287.687C1697.25 280.114 1686.31 276.43 1671.71 276.43V278.43C1686.01 278.43 1696.3 282.037 1702.81 289.048L1704.28 287.687ZM1671.71 276.43C1659.8 276.43 1649.31 279.609 1640.27 285.988L1641.43 287.622C1650.1 281.501 1660.18 278.43 1671.71 278.43V276.43ZM1640.27 285.988C1631.28 292.339 1624.27 300.675 1619.25 310.976L1621.05 311.852C1625.92 301.841 1632.72 293.77 1641.43 287.622L1640.27 285.988ZM1619.15 311.414V462H1621.15V311.414H1619.15ZM1620.15 461H1584.02V463H1620.15V461ZM1585.02 462V250.672H1583.02V462H1585.02ZM1584.02 251.672H1618.2V249.672H1584.02V251.672ZM1818.98 276.062L1819.76 276.68L1819.77 276.678L1818.98 276.062ZM1939.88 274.109L1939.09 274.731L1940.68 276.735L1940.87 274.184L1939.88 274.109ZM1941.63 250.672V249.672H1940.71L1940.64 250.597L1941.63 250.672ZM1974.64 250.672H1975.64V249.672H1974.64V250.672ZM1950.23 521.57L1949.53 520.852L1949.53 520.855L1950.23 521.57ZM1840.27 535.438L1839.86 536.351L1840.27 535.438ZM1806.87 508.68L1806.11 508.026L1805.61 508.606L1806.04 509.241L1806.87 508.68ZM1825.62 487L1826.39 486.371L1825.64 485.442L1824.86 486.346L1825.62 487ZM1923.47 500.867L1922.76 500.16L1922.76 500.165L1923.47 500.867ZM1938.31 440.906H1939.31V438.227L1937.56 440.251L1938.31 440.906ZM1818.98 436.023L1818.18 436.631L1818.18 436.634L1818.98 436.023ZM1847.1 414.93L1846.29 415.511L1846.29 415.515L1847.1 414.93ZM1938.31 404.188L1939.2 404.646L1939.31 404.43V404.188H1938.31ZM1938.31 307.703H1939.31V307.447L1939.19 307.222L1938.31 307.703ZM1847.3 297.938L1846.49 297.351L1847.3 297.938ZM1797.12 354.578C1797.12 321.784 1804.71 295.854 1819.76 276.68L1818.19 275.445C1802.78 295.073 1795.12 321.486 1795.12 354.578H1797.12ZM1819.77 276.678C1834.81 257.393 1854.7 247.766 1879.52 247.766V245.766C1854.09 245.766 1833.62 255.669 1818.19 275.447L1819.77 276.678ZM1879.52 247.766C1905.04 247.766 1924.85 256.769 1939.09 274.731L1940.66 273.488C1925.99 254.992 1905.57 245.766 1879.52 245.766V247.766ZM1940.87 274.184L1942.63 250.747L1940.64 250.597L1938.88 274.035L1940.87 274.184ZM1941.63 251.672H1974.64V249.672H1941.63V251.672ZM1973.64 250.672V456.922H1975.64V250.672H1973.64ZM1973.64 456.922C1973.64 484.055 1965.57 505.323 1949.53 520.852L1950.92 522.289C1967.43 506.307 1975.64 484.476 1975.64 456.922H1973.64ZM1949.53 520.855C1933.61 536.39 1912.13 544.203 1884.99 544.203V546.203C1912.54 546.203 1934.55 538.261 1950.92 522.286L1949.53 520.855ZM1884.99 544.203C1869.91 544.203 1855.13 540.98 1840.67 534.524L1839.86 536.351C1854.56 542.915 1869.61 546.203 1884.99 546.203V544.203ZM1840.67 534.524C1826.23 528.077 1815.26 519.268 1807.69 508.118L1806.04 509.241C1813.84 520.747 1825.13 529.777 1839.86 536.351L1840.67 534.524ZM1807.62 509.334L1826.37 487.654L1824.86 486.346L1806.11 508.026L1807.62 509.334ZM1824.84 487.629C1840.5 506.978 1859.72 516.711 1882.45 516.711V514.711C1860.39 514.711 1841.72 505.303 1826.39 486.371L1824.84 487.629ZM1882.45 516.711C1900.22 516.711 1914.18 511.703 1924.18 501.57L1922.76 500.165C1913.23 509.823 1899.84 514.711 1882.45 514.711V516.711ZM1924.18 501.574C1934.31 491.442 1939.31 477.225 1939.31 459.07H1937.31C1937.31 476.853 1932.42 490.501 1922.76 500.16L1924.18 501.574ZM1939.31 459.07V440.906H1937.31V459.07H1939.31ZM1937.56 440.251C1923.32 456.668 1903.89 464.906 1879.13 464.906V466.906C1904.38 466.906 1924.4 458.478 1939.07 441.561L1937.56 440.251ZM1879.13 464.906C1854.71 464.906 1834.95 455.094 1819.77 435.413L1818.18 436.634C1833.73 456.797 1854.08 466.906 1879.13 466.906V464.906ZM1819.77 435.416C1804.71 415.723 1797.12 388.814 1797.12 354.578H1795.12C1795.12 389.092 1802.77 416.48 1818.18 436.631L1819.77 435.416ZM1831.45 358.68C1831.45 382.632 1836.36 401.612 1846.29 415.511L1847.92 414.348C1838.31 400.904 1833.45 382.384 1833.45 358.68H1831.45ZM1846.29 415.515C1856.26 429.333 1870.24 436.242 1888.12 436.242V434.242C1870.84 434.242 1857.48 427.61 1847.91 414.345L1846.29 415.515ZM1888.12 436.242C1899.67 436.242 1909.73 433.617 1918.28 428.329C1926.83 423.041 1933.8 415.129 1939.2 404.646L1937.42 403.729C1932.15 413.949 1925.42 421.564 1917.23 426.628C1909.05 431.691 1899.35 434.242 1888.12 434.242V436.242ZM1939.31 404.188V307.703H1937.31V404.188H1939.31ZM1939.19 307.222C1933.59 297.006 1926.56 289.296 1918.08 284.144C1909.6 278.99 1899.73 276.43 1888.51 276.43V278.43C1899.42 278.43 1908.92 280.915 1917.04 285.853C1925.17 290.792 1931.97 298.218 1937.44 308.184L1939.19 307.222ZM1888.51 276.43C1870.62 276.43 1856.58 283.407 1846.49 297.351L1848.11 298.524C1857.81 285.124 1871.23 278.43 1888.51 278.43V276.43ZM1846.49 297.351C1836.41 311.268 1831.45 331.761 1831.45 358.68H1833.45C1833.45 331.953 1838.39 311.951 1848.11 298.524L1846.49 297.351ZM2185.97 436.609L2186.76 437.214L2186.77 437.212L2185.97 436.609ZM2064.29 437.586L2065.08 436.975L2063.48 434.902L2063.29 437.514L2064.29 437.586ZM2062.53 462V463H2063.46L2063.53 462.072L2062.53 462ZM2029.33 462H2028.33V463H2029.33V462ZM2029.33 162V161H2028.33V162H2029.33ZM2065.46 162H2066.46V161H2065.46V162ZM2065.46 273.914H2064.46V276.749L2066.24 274.541L2065.46 273.914ZM2186.16 275.867L2185.36 276.468L2185.37 276.471L2186.16 275.867ZM2065.46 310.633L2064.56 310.207L2064.46 310.409V310.633H2065.46ZM2065.46 402.039H2064.46V402.275L2064.57 402.486L2065.46 402.039ZM2207.23 358.68C2207.23 390.821 2199.85 416.566 2185.17 436.007L2186.77 437.212C2201.78 417.33 2209.23 391.121 2209.23 358.68H2207.23ZM2185.17 436.004C2170.52 455.281 2150.9 464.906 2126.2 464.906V466.906C2151.51 466.906 2171.73 457 2186.76 437.214L2185.17 436.004ZM2126.2 464.906C2099.78 464.906 2079.45 455.578 2065.08 436.975L2063.5 438.197C2078.29 457.354 2099.24 466.906 2126.2 466.906V464.906ZM2063.29 437.514L2061.53 461.928L2063.53 462.072L2065.29 437.658L2063.29 437.514ZM2062.53 461H2029.33V463H2062.53V461ZM2030.33 462V162H2028.33V462H2030.33ZM2029.33 163H2065.46V161H2029.33V163ZM2064.46 162V273.914H2066.46V162H2064.46ZM2066.24 274.541C2080.61 256.705 2100.43 247.766 2125.81 247.766V245.766C2099.89 245.766 2079.48 254.926 2064.68 273.287L2066.24 274.541ZM2125.81 247.766C2151.17 247.766 2170.98 257.335 2185.36 276.468L2186.96 275.266C2172.18 255.598 2151.76 245.766 2125.81 245.766V247.766ZM2185.37 276.471C2199.91 295.643 2207.23 321.967 2207.23 355.555H2209.23C2209.23 321.695 2201.85 294.894 2186.96 275.263L2185.37 276.471ZM2207.23 355.555V358.68H2209.23V355.555H2207.23ZM2173.1 354.578C2173.1 329.859 2168.33 310.614 2158.66 296.969L2157.03 298.125C2166.37 311.303 2171.1 330.079 2171.1 354.578H2173.1ZM2158.66 296.969C2148.95 283.267 2134.96 276.43 2116.83 276.43V278.43C2134.37 278.43 2147.73 285.004 2157.03 298.125L2158.66 296.969ZM2116.83 276.43C2104.75 276.43 2094.32 279.236 2085.57 284.891C2076.83 290.545 2069.83 299.004 2064.56 310.207L2066.37 311.059C2071.51 300.126 2078.28 291.984 2086.66 286.57C2095.03 281.158 2105.07 278.43 2116.83 278.43V276.43ZM2064.46 310.633V402.039H2066.46V310.633H2064.46ZM2064.57 402.486C2070.16 413.682 2077.35 422.134 2086.16 427.783C2094.97 433.435 2105.34 436.242 2117.22 436.242V434.242C2105.66 434.242 2095.68 431.516 2087.24 426.1C2078.79 420.681 2071.83 412.532 2066.36 401.592L2064.57 402.486ZM2117.22 436.242C2134.84 436.242 2148.63 429.396 2158.46 415.708L2156.84 414.542C2147.4 427.677 2134.23 434.242 2117.22 434.242V436.242ZM2158.46 415.708C2168.27 402.05 2173.1 381.62 2173.1 354.578H2171.1C2171.1 381.443 2166.29 401.377 2156.84 414.542L2158.46 415.708ZM2256.48 298.523L2255.58 298.079L2255.58 298.085L2256.48 298.523ZM2290.46 260.242L2289.94 259.391L2289.93 259.393L2290.46 260.242ZM2409.99 276.648L2409.24 277.313L2409.25 277.316L2409.99 276.648ZM2424.84 414.148L2423.94 413.713L2423.93 413.716L2424.84 414.148ZM2391.05 452.234L2390.52 451.384L2390.52 451.386L2391.05 452.234ZM2270.93 436.023L2270.18 436.688L2270.18 436.691L2270.93 436.023ZM2296.91 415.125L2296.11 415.731L2296.11 415.735L2296.91 415.125ZM2384.41 414.93L2385.2 415.532L2385.21 415.529L2384.41 414.93ZM2384.02 298.133L2383.22 298.736L2383.22 298.744L2384.02 298.133ZM2245.37 354.383C2245.37 333.813 2249.38 315.346 2257.38 298.962L2255.58 298.085C2247.43 314.774 2243.37 333.547 2243.37 354.383H2245.37ZM2257.37 298.968C2265.5 282.583 2276.71 269.969 2290.99 261.091L2289.93 259.393C2275.31 268.484 2263.86 281.391 2255.58 298.079L2257.37 298.968ZM2290.99 261.094C2305.4 252.215 2321.81 247.766 2340.27 247.766V245.766C2321.48 245.766 2304.69 250.301 2289.94 259.391L2290.99 261.094ZM2340.27 247.766C2368.78 247.766 2391.74 257.623 2409.24 277.313L2410.74 275.984C2392.83 255.83 2369.3 245.766 2340.27 245.766V247.766ZM2409.25 277.316C2426.89 297.013 2435.75 323.253 2435.75 356.141H2437.75C2437.75 322.882 2428.78 296.127 2410.74 275.981L2409.25 277.316ZM2435.75 356.141V358.68H2437.75V356.141H2435.75ZM2435.75 358.68C2435.75 379.121 2431.8 397.459 2423.94 413.713L2425.74 414.584C2433.75 398.026 2437.75 379.384 2437.75 358.68H2435.75ZM2423.93 413.716C2416.2 429.828 2405.06 442.375 2390.52 451.384L2391.57 453.084C2406.46 443.865 2417.85 431.021 2425.74 414.581L2423.93 413.716ZM2390.52 451.386C2376.11 460.391 2359.5 464.906 2340.66 464.906V466.906C2359.83 466.906 2376.82 462.307 2391.58 453.082L2390.52 451.386ZM2340.66 464.906C2312.27 464.906 2289.31 455.05 2271.67 435.356L2270.18 436.691C2288.23 456.841 2311.75 466.906 2340.66 466.906V464.906ZM2271.68 435.359C2254.17 415.66 2245.37 389.548 2245.37 356.922H2243.37C2243.37 389.92 2252.28 416.543 2270.18 436.688L2271.68 435.359ZM2245.37 356.922V354.383H2243.37V356.922H2245.37ZM2279.7 358.68C2279.7 382.267 2285.13 401.316 2296.11 415.731L2297.7 414.519C2287.06 400.548 2281.7 381.967 2281.7 358.68H2279.7ZM2296.11 415.735C2307.24 430.179 2322.12 437.414 2340.66 437.414V435.414C2322.73 435.414 2308.44 428.457 2297.7 414.515L2296.11 415.735ZM2340.66 437.414C2359.32 437.414 2374.2 430.112 2385.2 415.532L2383.61 414.327C2372.99 428.393 2358.71 435.414 2340.66 435.414V437.414ZM2385.21 415.529C2396.19 400.842 2401.62 380.419 2401.62 354.383H2399.62C2399.62 380.169 2394.24 400.111 2383.61 414.331L2385.21 415.529ZM2401.62 354.383C2401.62 331.047 2396.04 312.063 2384.81 297.521L2383.22 298.744C2394.12 312.848 2399.62 331.364 2399.62 354.383H2401.62ZM2384.81 297.529C2373.69 282.825 2358.81 275.453 2340.27 275.453V277.453C2358.18 277.453 2372.47 284.535 2383.22 298.736L2384.81 297.529ZM2340.27 275.453C2322.12 275.453 2307.44 282.695 2296.31 297.132L2297.89 298.353C2308.64 284.404 2322.74 277.453 2340.27 277.453V275.453ZM2296.31 297.132C2285.19 311.565 2279.7 332.127 2279.7 358.68H2281.7C2281.7 332.368 2287.14 312.305 2297.89 298.353L2296.31 297.132ZM2612.53 462L2611.64 462.447L2611.91 463H2612.53V462ZM2607.45 439.734L2608.45 439.613L2608.19 437.526L2606.73 439.041L2607.45 439.734ZM2495.93 448.328L2495.26 449.074L2495.27 449.081L2495.93 448.328ZM2501.01 352.234L2501.6 353.043L2501.6 353.043L2501.01 352.234ZM2606.87 333.875V334.875H2607.87V333.875H2606.87ZM2595.54 287.195L2594.83 287.902L2594.84 287.909L2595.54 287.195ZM2516.63 309.266V310.266H2517.63V309.266H2516.63ZM2480.3 309.266H2479.3V310.266H2480.3V309.266ZM2491.44 278.797L2490.64 278.19L2490.64 278.192L2491.44 278.797ZM2521.91 255.359L2521.5 254.446L2521.5 254.447L2521.91 255.359ZM2621.52 265.125L2620.85 265.873L2620.86 265.877L2621.52 265.125ZM2643 315.32H2644V315.308L2644 315.296L2643 315.32ZM2650.42 458.875H2651.42V458.668L2651.34 458.479L2650.42 458.875ZM2650.42 462V463H2651.42V462H2650.42ZM2606.87 402.82L2607.77 403.258L2607.87 403.05V402.82H2606.87ZM2606.87 359.461H2607.87V358.461H2606.87V359.461ZM2523.47 424.891L2522.82 425.655L2523.47 424.891ZM2613.43 461.553C2611.43 457.555 2609.75 450.287 2608.45 439.613L2606.46 439.855C2607.76 450.536 2609.47 458.112 2611.64 462.447L2613.43 461.553ZM2606.73 439.041C2590.12 456.302 2570.32 464.906 2547.3 464.906V466.906C2570.89 466.906 2591.2 458.063 2608.17 440.428L2606.73 439.041ZM2547.3 464.906C2526.66 464.906 2509.79 459.108 2496.59 447.575L2495.27 449.081C2508.9 460.986 2526.26 466.906 2547.3 466.906V464.906ZM2496.6 447.582C2483.53 435.926 2477.01 421.226 2477.01 403.406H2475.01C2475.01 421.785 2481.77 437.032 2495.26 449.074L2496.6 447.582ZM2477.01 403.406C2477.01 381.696 2485.21 364.95 2501.6 353.043L2500.42 351.425C2483.47 363.737 2475.01 381.106 2475.01 403.406H2477.01ZM2501.6 353.043C2518.16 340.973 2541.49 334.875 2571.71 334.875V332.875C2541.25 332.875 2517.45 339.016 2500.42 351.426L2501.6 353.043ZM2571.71 334.875H2606.87V332.875H2571.71V334.875ZM2607.87 333.875V317.273H2605.87V333.875H2607.87ZM2607.87 317.273C2607.87 304.431 2604.02 294.128 2596.24 286.482L2594.84 287.909C2602.16 295.107 2605.87 304.856 2605.87 317.273H2607.87ZM2596.25 286.488C2588.44 278.687 2577.02 274.867 2562.14 274.867V276.867C2576.69 276.867 2587.53 280.6 2594.83 287.902L2596.25 286.488ZM2562.14 274.867C2549.08 274.867 2538.05 278.17 2529.12 284.831L2530.32 286.434C2538.84 280.075 2549.42 276.867 2562.14 276.867V274.867ZM2529.12 284.831C2520.19 291.493 2515.63 299.647 2515.63 309.266H2517.63C2517.63 300.395 2521.79 292.794 2530.32 286.434L2529.12 284.831ZM2516.63 308.266H2480.3V310.266H2516.63V308.266ZM2481.3 309.266C2481.3 298.972 2484.92 289.023 2492.23 279.402L2490.64 278.192C2483.11 288.102 2479.3 298.466 2479.3 309.266H2481.3ZM2492.23 279.404C2499.67 269.656 2509.69 261.941 2522.32 256.272L2521.5 254.447C2508.6 260.236 2498.31 268.146 2490.64 278.19L2492.23 279.404ZM2522.31 256.273C2535.06 250.606 2549.05 247.766 2564.29 247.766V245.766C2548.8 245.766 2534.53 248.655 2521.5 254.446L2522.31 256.273ZM2564.29 247.766C2588.47 247.766 2607.28 253.842 2620.85 265.873L2622.18 264.377C2608.14 251.929 2588.8 245.766 2564.29 245.766V247.766ZM2620.86 265.877C2634.41 277.771 2641.49 294.22 2642 315.345L2644 315.296C2643.47 293.712 2636.22 276.698 2622.18 264.373L2620.86 265.877ZM2642 315.32V412.586H2644V315.32H2642ZM2642 412.586C2642 432.056 2644.48 447.638 2649.5 459.271L2651.34 458.479C2646.47 447.195 2644 431.918 2644 412.586H2642ZM2649.42 458.875V462H2651.42V458.875H2649.42ZM2650.42 461H2612.53V463H2650.42V461ZM2552.57 435.461C2564.08 435.461 2574.99 432.482 2585.3 426.538L2584.3 424.806C2574.29 430.581 2563.72 433.461 2552.57 433.461V435.461ZM2585.3 426.538C2595.6 420.592 2603.11 412.834 2607.77 403.258L2605.97 402.383C2601.51 411.556 2594.3 419.033 2584.3 424.806L2585.3 426.538ZM2607.87 402.82V359.461H2605.87V402.82H2607.87ZM2606.87 358.461H2578.55V360.461H2606.87V358.461ZM2578.55 358.461C2556.35 358.461 2539.53 361.704 2528.24 368.315C2516.86 374.974 2511.14 385.022 2511.14 398.328H2513.14C2513.14 385.723 2518.49 376.337 2529.25 370.041C2540.09 363.696 2556.48 360.461 2578.55 360.461V358.461ZM2511.14 398.328C2511.14 409.903 2515.01 419.055 2522.82 425.655L2524.11 424.127C2516.82 417.965 2513.14 409.41 2513.14 398.328H2511.14ZM2522.82 425.655C2530.59 432.216 2540.53 435.461 2552.57 435.461V433.461C2540.91 433.461 2531.45 430.326 2524.11 424.127L2522.82 425.655ZM2801.79 283.094L2801.62 284.08L2802.79 284.274V283.094H2801.79ZM2735.77 312L2734.85 311.613L2734.77 311.799V312H2735.77ZM2735.77 462V463H2736.77V462H2735.77ZM2699.64 462H2698.64V463H2699.64V462ZM2699.64 250.672V249.672H2698.64V250.672H2699.64ZM2734.8 250.672L2735.8 250.648L2735.77 249.672H2734.8V250.672ZM2735.38 275.086L2734.38 275.11L2734.46 278.433L2736.23 275.618L2735.38 275.086ZM2801.79 249.5H2802.79V248.882L2802.24 248.606L2801.79 249.5ZM2801.95 282.107C2796.42 281.186 2790.44 280.727 2784.02 280.727V282.727C2790.35 282.727 2796.22 283.179 2801.62 284.08L2801.95 282.107ZM2784.02 280.727C2772.03 280.727 2761.89 283.28 2753.65 288.448C2745.41 293.619 2739.15 301.362 2734.85 311.613L2736.7 312.387C2740.86 302.456 2746.87 295.062 2754.71 290.142C2762.56 285.218 2772.31 282.727 2784.02 282.727V280.727ZM2734.77 312V462H2736.77V312H2734.77ZM2735.77 461H2699.64V463H2735.77V461ZM2700.64 462V250.672H2698.64V462H2700.64ZM2699.64 251.672H2734.8V249.672H2699.64V251.672ZM2733.8 250.696L2734.38 275.11L2736.38 275.062L2735.8 250.648L2733.8 250.696ZM2736.23 275.618C2747.9 257.02 2764.38 247.766 2785.77 247.766V245.766C2763.67 245.766 2746.56 255.392 2734.54 274.554L2736.23 275.618ZM2785.77 247.766C2792.75 247.766 2797.9 248.674 2801.34 250.394L2802.24 248.606C2798.38 246.68 2792.86 245.766 2785.77 245.766V247.766ZM2800.79 249.5V283.094H2802.79V249.5H2800.79ZM2845.54 276.453L2846.33 277.069L2846.33 277.066L2845.54 276.453ZM2964.68 272.156L2963.92 272.806L2965.68 274.867V272.156H2964.68ZM2964.68 162V161H2963.68V162H2964.68ZM3000.81 162H3001.81V161H3000.81V162ZM3000.81 462V463H3001.81V462H3000.81ZM2967.61 462L2966.61 462.077L2966.68 463H2967.61V462ZM2965.85 439.344L2966.85 439.266L2966.66 436.777L2965.08 438.711L2965.85 439.344ZM2845.54 435.828L2844.75 436.436L2844.75 436.44L2845.54 435.828ZM2964.68 404.383L2965.57 404.839L2965.68 404.624V404.383H2964.68ZM2964.68 307.312H2965.68V307.059L2965.56 306.836L2964.68 307.312ZM2873.47 297.938L2872.66 297.351L2873.47 297.938ZM2823.49 354.578C2823.49 322.312 2831.14 296.508 2846.33 277.069L2844.75 275.837C2829.21 295.721 2821.49 322 2821.49 354.578H2823.49ZM2846.33 277.066C2861.51 257.517 2881.33 247.766 2905.89 247.766V245.766C2880.71 245.766 2860.3 255.806 2844.75 275.84L2846.33 277.066ZM2905.89 247.766C2930.37 247.766 2949.68 256.127 2963.92 272.806L2965.44 271.507C2950.77 254.331 2930.89 245.766 2905.89 245.766V247.766ZM2965.68 272.156V162H2963.68V272.156H2965.68ZM2964.68 163H3000.81V161H2964.68V163ZM2999.81 162V462H3001.81V162H2999.81ZM3000.81 461H2967.61V463H3000.81V461ZM2968.61 461.923L2966.85 439.266L2964.85 439.421L2966.61 462.077L2968.61 461.923ZM2965.08 438.711C2950.84 456.155 2931.02 464.906 2905.5 464.906V466.906C2931.54 466.906 2951.96 457.949 2966.63 439.976L2965.08 438.711ZM2905.5 464.906C2881.34 464.906 2861.64 455.034 2846.33 435.217L2844.75 436.44C2860.42 456.727 2880.7 466.906 2905.5 466.906V464.906ZM2846.33 435.22C2831.14 415.386 2823.49 389.446 2823.49 357.312H2821.49C2821.49 389.762 2829.21 416.166 2844.75 436.436L2846.33 435.22ZM2823.49 357.312V354.578H2821.49V357.312H2823.49ZM2857.62 358.68C2857.62 382.762 2862.6 401.747 2872.66 415.52L2874.28 414.34C2864.55 401.029 2859.62 382.514 2859.62 358.68H2857.62ZM2872.66 415.52C2882.75 429.331 2896.73 436.242 2914.48 436.242V434.242C2897.34 434.242 2883.97 427.612 2874.28 414.34L2872.66 415.52ZM2914.48 436.242C2926.1 436.242 2936.2 433.634 2944.74 428.379C2953.29 423.124 2960.23 415.259 2965.57 404.839L2963.79 403.927C2958.58 414.079 2951.88 421.644 2943.7 426.675C2935.51 431.707 2925.79 434.242 2914.48 434.242V436.242ZM2965.68 404.383V307.312H2963.68V404.383H2965.68ZM2965.56 306.836C2960.08 296.745 2953.12 289.13 2944.64 284.043C2936.16 278.955 2926.23 276.43 2914.88 276.43V278.43C2925.92 278.43 2935.49 280.884 2943.61 285.758C2951.73 290.632 2958.47 297.958 2963.8 307.789L2965.56 306.836ZM2914.88 276.43C2896.86 276.43 2882.75 283.405 2872.66 297.351L2874.28 298.524C2883.98 285.126 2897.47 278.43 2914.88 278.43V276.43ZM2872.66 297.351C2862.59 311.268 2857.62 331.761 2857.62 358.68H2859.62C2859.62 331.953 2864.56 311.951 2874.28 298.524L2872.66 297.351Z" fill="black" fill-opacity="0.6"/>
</svg>
