<svg width="743" height="500" viewBox="0 0 743 500" fill="none" xmlns="http://www.w3.org/2000/svg">
<path d="M182.285 221.522C44.0988 194.162 59.5689 241.095 38.8727 276.436C11.7633 322.736 6.14766 332.143 6.14766 332.143L494.399 460.631C632.586 487.991 665.005 429.126 685.701 393.785C712.811 347.485 722.466 328.476 722.466 328.476L182.285 221.522Z" fill="#9C27B0" fill-opacity="0.3"/>
<path d="M187.393 187.671C46.1519 173.712 60.1177 237.381 42.8933 274.546C20.3323 323.237 10.0155 334.063 10.0155 334.063L524.071 395.692C665.311 409.651 691.943 347.944 709.168 310.779C731.729 262.088 739.513 242.239 739.513 242.239L187.393 187.671Z" fill="#9C27B0" fill-opacity="0.3"/>
<path d="M199.286 153.592C60.195 153.592 40.2608 220.039 27.0996 260.181C9.8618 312.769 4.21216 334.063 4.21216 334.063H547.927C687.017 334.063 706.951 267.616 720.112 227.475C737.35 174.886 743 153.592 743 153.592H199.286Z" fill="#9C27B0"/>
<ellipse rx="100.189" ry="99.4585" transform="matrix(0.999996 -0.00277526 0.00281617 0.999996 576.576 99.7362)" fill="#00BCD4"/>
</svg>
