<svg width="196" height="40" viewBox="0 0 196 40" fill="none" xmlns="http://www.w3.org/2000/svg">
<path d="M14.6121 17.7572C3.53514 15.564 4.77522 19.3261 3.11622 22.159C0.94313 25.8704 0.492984 26.6245 0.492984 26.6245L39.6311 36.924C50.7081 39.1172 53.3069 34.3986 54.9659 31.5657C57.139 27.8543 57.9129 26.3305 57.9129 26.3305L14.6121 17.7572Z" fill="#9C27B0" fill-opacity="0.3"/>
<path d="M15.0216 15.0437C3.69972 13.9247 4.81922 19.0284 3.43851 22.0076C1.63003 25.9106 0.803032 26.7784 0.803032 26.7784L42.0096 31.7186C53.3314 32.8376 55.4662 27.8911 56.8469 24.9119C58.6554 21.0089 59.2794 19.4178 59.2794 19.4178L15.0216 15.0437Z" fill="#9C27B0" fill-opacity="0.3"/>
<path d="M15.9749 12.3119C4.82547 12.3119 3.22754 17.6383 2.17255 20.856C0.790765 25.0715 0.337891 26.7784 0.337891 26.7784H43.9219C55.0714 26.7784 56.6693 21.452 57.7243 18.2343C59.1061 14.0189 59.559 12.3119 59.559 12.3119H15.9749Z" fill="#9C27B0"/>
<ellipse rx="8.03112" ry="7.97257" transform="matrix(0.999996 -0.00277526 0.00281617 0.999996 46.2181 7.99482)" fill="#00BCD4"/>
<path d="M71.0234 20.6367C71.0234 20.0508 70.8008 19.5977 70.3555 19.2773C69.918 18.9492 69.1484 18.668 68.0469 18.4336C66.9531 18.1992 66.082 17.918 65.4336 17.5898C64.793 17.2617 64.3164 16.8711 64.0039 16.418C63.6992 15.9648 63.5469 15.4258 63.5469 14.8008C63.5469 13.7617 63.9844 12.8828 64.8594 12.1641C65.7422 11.4453 66.8672 11.0859 68.2344 11.0859C69.6719 11.0859 70.8359 11.457 71.7266 12.1992C72.625 12.9414 73.0742 13.8906 73.0742 15.0469H70.8945C70.8945 14.4531 70.6406 13.9414 70.1328 13.5117C69.6328 13.082 69 12.8672 68.2344 12.8672C67.4453 12.8672 66.8281 13.0391 66.3828 13.3828C65.9375 13.7266 65.7148 14.1758 65.7148 14.7305C65.7148 15.2539 65.9219 15.6484 66.3359 15.9141C66.75 16.1797 67.4961 16.4336 68.5742 16.6758C69.6602 16.918 70.5391 17.207 71.2109 17.543C71.8828 17.8789 72.3789 18.2852 72.6992 18.7617C73.0273 19.2305 73.1914 19.8047 73.1914 20.4844C73.1914 21.6172 72.7383 22.5273 71.832 23.2148C70.9258 23.8945 69.75 24.2344 68.3047 24.2344C67.2891 24.2344 66.3906 24.0547 65.6094 23.6953C64.8281 23.3359 64.2148 22.8359 63.7695 22.1953C63.332 21.5469 63.1133 20.8477 63.1133 20.0977H65.2812C65.3203 20.8242 65.6094 21.4023 66.1484 21.832C66.6953 22.2539 67.4141 22.4648 68.3047 22.4648C69.125 22.4648 69.7812 22.3008 70.2734 21.9727C70.7734 21.6367 71.0234 21.1914 71.0234 20.6367ZM86.7266 17.8008C86.7266 19.7305 86.2852 21.2852 85.4023 22.4648C84.5195 23.6445 83.3242 24.2344 81.8164 24.2344C80.2773 24.2344 79.0664 23.7461 78.1836 22.7695V28.875H76.0156V11.3203H77.9961L78.1016 12.7266C78.9844 11.6328 80.2109 11.0859 81.7812 11.0859C83.3047 11.0859 84.5078 11.6602 85.3906 12.8086C86.2812 13.957 86.7266 15.5547 86.7266 17.6016V17.8008ZM84.5586 17.5547C84.5586 16.125 84.2539 14.9961 83.6445 14.168C83.0352 13.3398 82.1992 12.9258 81.1367 12.9258C79.8242 12.9258 78.8398 13.5078 78.1836 14.6719V20.7305C78.832 21.8867 79.8242 22.4648 81.1602 22.4648C82.1992 22.4648 83.0234 22.0547 83.6328 21.2344C84.25 20.4062 84.5586 19.1797 84.5586 17.5547ZM95.6211 13.2656C95.293 13.2109 94.9375 13.1836 94.5547 13.1836C93.1328 13.1836 92.168 13.7891 91.6602 15V24H89.4922V11.3203H91.6016L91.6367 12.7852C92.3477 11.6523 93.3555 11.0859 94.6602 11.0859C95.082 11.0859 95.4023 11.1406 95.6211 11.25V13.2656ZM99.9805 24H97.8125V11.3203H99.9805V24ZM97.6367 7.95703C97.6367 7.60547 97.7422 7.30859 97.9531 7.06641C98.1719 6.82422 98.4922 6.70312 98.9141 6.70312C99.3359 6.70312 99.6562 6.82422 99.875 7.06641C100.094 7.30859 100.203 7.60547 100.203 7.95703C100.203 8.30859 100.094 8.60156 99.875 8.83594C99.6562 9.07031 99.3359 9.1875 98.9141 9.1875C98.4922 9.1875 98.1719 9.07031 97.9531 8.83594C97.7422 8.60156 97.6367 8.30859 97.6367 7.95703ZM105.512 11.3203L105.582 12.9141C106.551 11.6953 107.816 11.0859 109.379 11.0859C112.059 11.0859 113.41 12.5977 113.434 15.6211V24H111.266V15.6094C111.258 14.6953 111.047 14.0195 110.633 13.582C110.227 13.1445 109.59 12.9258 108.723 12.9258C108.02 12.9258 107.402 13.1133 106.871 13.4883C106.34 13.8633 105.926 14.3555 105.629 14.9648V24H103.461V11.3203H105.512ZM116.188 17.5547C116.188 15.5781 116.645 14.0078 117.559 12.8438C118.473 11.6719 119.684 11.0859 121.191 11.0859C122.738 11.0859 123.945 11.6328 124.812 12.7266L124.918 11.3203H126.898V23.6953C126.898 25.3359 126.41 26.6289 125.434 27.5742C124.465 28.5195 123.16 28.9922 121.52 28.9922C120.605 28.9922 119.711 28.7969 118.836 28.4062C117.961 28.0156 117.293 27.4805 116.832 26.8008L117.957 25.5C118.887 26.6484 120.023 27.2227 121.367 27.2227C122.422 27.2227 123.242 26.9258 123.828 26.332C124.422 25.7383 124.719 24.9023 124.719 23.8242V22.7344C123.852 23.7344 122.668 24.2344 121.168 24.2344C119.684 24.2344 118.48 23.6367 117.559 22.4414C116.645 21.2461 116.188 19.6172 116.188 17.5547ZM118.367 17.8008C118.367 19.2305 118.66 20.3555 119.246 21.1758C119.832 21.9883 120.652 22.3945 121.707 22.3945C123.074 22.3945 124.078 21.7734 124.719 20.5312V14.7422C124.055 13.5312 123.059 12.9258 121.73 12.9258C120.676 12.9258 119.852 13.3359 119.258 14.1562C118.664 14.9766 118.367 16.1914 118.367 17.8008Z" fill="black"/>
<path d="M140.914 17.8008C140.914 19.7383 140.469 21.2969 139.578 22.4766C138.688 23.6484 137.492 24.2344 135.992 24.2344C134.391 24.2344 133.152 23.668 132.277 22.5352L132.172 24H130.18V6H132.348V12.7148C133.223 11.6289 134.43 11.0859 135.969 11.0859C137.508 11.0859 138.715 11.668 139.59 12.832C140.473 13.9961 140.914 15.5898 140.914 17.6133V17.8008ZM138.746 17.5547C138.746 16.0781 138.461 14.9375 137.891 14.1328C137.32 13.3281 136.5 12.9258 135.43 12.9258C134 12.9258 132.973 13.5898 132.348 14.918V20.4023C133.012 21.7305 134.047 22.3945 135.453 22.3945C136.492 22.3945 137.301 21.9922 137.879 21.1875C138.457 20.3828 138.746 19.1719 138.746 17.5547ZM143.082 17.543C143.082 16.3008 143.324 15.1836 143.809 14.1914C144.301 13.1992 144.98 12.4336 145.848 11.8945C146.723 11.3555 147.719 11.0859 148.836 11.0859C150.562 11.0859 151.957 11.6836 153.02 12.8789C154.09 14.0742 154.625 15.6641 154.625 17.6484V17.8008C154.625 19.0352 154.387 20.1445 153.91 21.1289C153.441 22.1055 152.766 22.8672 151.883 23.4141C151.008 23.9609 150 24.2344 148.859 24.2344C147.141 24.2344 145.746 23.6367 144.676 22.4414C143.613 21.2461 143.082 19.6641 143.082 17.6953V17.543ZM145.262 17.8008C145.262 19.207 145.586 20.3359 146.234 21.1875C146.891 22.0391 147.766 22.4648 148.859 22.4648C149.961 22.4648 150.836 22.0352 151.484 21.1758C152.133 20.3086 152.457 19.0977 152.457 17.543C152.457 16.1523 152.125 15.0273 151.461 14.168C150.805 13.3008 149.93 12.8672 148.836 12.8672C147.766 12.8672 146.902 13.293 146.246 14.1445C145.59 14.9961 145.262 16.2148 145.262 17.8008ZM165.172 24C165.047 23.75 164.945 23.3047 164.867 22.6641C163.859 23.7109 162.656 24.2344 161.258 24.2344C160.008 24.2344 158.98 23.8828 158.176 23.1797C157.379 22.4688 156.98 21.5703 156.98 20.4844C156.98 19.1641 157.48 18.1406 158.48 17.4141C159.488 16.6797 160.902 16.3125 162.723 16.3125H164.832V15.3164C164.832 14.5586 164.605 13.957 164.152 13.5117C163.699 13.0586 163.031 12.832 162.148 12.832C161.375 12.832 160.727 13.0273 160.203 13.418C159.68 13.8086 159.418 14.2812 159.418 14.8359H157.238C157.238 14.2031 157.461 13.5938 157.906 13.0078C158.359 12.4141 158.969 11.9453 159.734 11.6016C160.508 11.2578 161.355 11.0859 162.277 11.0859C163.738 11.0859 164.883 11.4531 165.711 12.1875C166.539 12.9141 166.969 13.918 167 15.1992V21.0352C167 22.1992 167.148 23.125 167.445 23.8125V24H165.172ZM161.574 22.3477C162.254 22.3477 162.898 22.1719 163.508 21.8203C164.117 21.4688 164.559 21.0117 164.832 20.4492V17.8477H163.133C160.477 17.8477 159.148 18.625 159.148 20.1797C159.148 20.8594 159.375 21.3906 159.828 21.7734C160.281 22.1562 160.863 22.3477 161.574 22.3477ZM176.527 13.2656C176.199 13.2109 175.844 13.1836 175.461 13.1836C174.039 13.1836 173.074 13.7891 172.566 15V24H170.398V11.3203H172.508L172.543 12.7852C173.254 11.6523 174.262 11.0859 175.566 11.0859C175.988 11.0859 176.309 11.1406 176.527 11.25V13.2656ZM177.77 17.5547C177.77 15.6094 178.23 14.0469 179.152 12.8672C180.074 11.6797 181.281 11.0859 182.773 11.0859C184.258 11.0859 185.434 11.5938 186.301 12.6094V6H188.469V24H186.477L186.371 22.6406C185.504 23.7031 184.297 24.2344 182.75 24.2344C181.281 24.2344 180.082 23.6328 179.152 22.4297C178.23 21.2266 177.77 19.6562 177.77 17.7188V17.5547ZM179.938 17.8008C179.938 19.2383 180.234 20.3633 180.828 21.1758C181.422 21.9883 182.242 22.3945 183.289 22.3945C184.664 22.3945 185.668 21.7773 186.301 20.543V14.7188C185.652 13.5234 184.656 12.9258 183.312 12.9258C182.25 12.9258 181.422 13.3359 180.828 14.1562C180.234 14.9766 179.938 16.1914 179.938 17.8008Z" fill="#9C27B0"/>
</svg>
