<svg width="230" height="40" viewBox="0 0 230 40" fill="none" xmlns="http://www.w3.org/2000/svg">
<path d="M14.6121 17.7572C3.53514 15.564 4.77522 19.3261 3.11622 22.159C0.94313 25.8704 0.492984 26.6245 0.492984 26.6245L39.6311 36.924C50.7081 39.1172 53.3069 34.3986 54.9659 31.5657C57.139 27.8543 57.9129 26.3305 57.9129 26.3305L14.6121 17.7572Z" fill="#9C27B0" fill-opacity="0.3"/>
<path d="M15.0211 15.0437C3.69923 13.9247 4.81873 19.0284 3.43803 22.0076C1.62954 25.9106 0.802544 26.7784 0.802544 26.7784L42.0091 31.7186C53.3309 32.8376 55.4657 27.8911 56.8464 24.9119C58.6549 21.0089 59.2789 19.4178 59.2789 19.4178L15.0211 15.0437Z" fill="#9C27B0" fill-opacity="0.3"/>
<path d="M15.9749 12.3119C4.82547 12.3119 3.22754 17.6383 2.17255 20.856C0.790765 25.0715 0.337891 26.7784 0.337891 26.7784H43.9219C55.0714 26.7784 56.6693 21.452 57.7243 18.2343C59.1061 14.0189 59.559 12.3119 59.559 12.3119H15.9749Z" fill="#9C27B0"/>
<ellipse rx="8.03112" ry="7.97257" transform="matrix(0.999996 -0.00277526 0.00281617 0.999996 46.2181 7.99482)" fill="#00BCD4"/>
<path d="M76.2793 23.7959C76.2793 23.0635 76.001 22.4971 75.4443 22.0967C74.8975 21.6865 73.9355 21.335 72.5586 21.042C71.1914 20.749 70.1025 20.3975 69.292 19.9873C68.4912 19.5771 67.8955 19.0889 67.5049 18.5225C67.124 17.9561 66.9336 17.2822 66.9336 16.501C66.9336 15.2021 67.4805 14.1035 68.5742 13.2051C69.6777 12.3066 71.084 11.8574 72.793 11.8574C74.5898 11.8574 76.0449 12.3213 77.1582 13.249C78.2812 14.1768 78.8428 15.3633 78.8428 16.8086H76.1182C76.1182 16.0664 75.8008 15.4268 75.166 14.8896C74.541 14.3525 73.75 14.084 72.793 14.084C71.8066 14.084 71.0352 14.2988 70.4785 14.7285C69.9219 15.1582 69.6436 15.7197 69.6436 16.4131C69.6436 17.0674 69.9023 17.5605 70.4199 17.8926C70.9375 18.2246 71.8701 18.542 73.2178 18.8447C74.5752 19.1475 75.6738 19.5088 76.5137 19.9287C77.3535 20.3486 77.9736 20.8564 78.374 21.4521C78.7842 22.0381 78.9893 22.7559 78.9893 23.6055C78.9893 25.0215 78.4229 26.1592 77.29 27.0186C76.1572 27.8682 74.6875 28.293 72.8809 28.293C71.6113 28.293 70.4883 28.0684 69.5117 27.6191C68.5352 27.1699 67.7686 26.5449 67.2119 25.7441C66.665 24.9336 66.3916 24.0596 66.3916 23.1221H69.1016C69.1504 24.0303 69.5117 24.7529 70.1855 25.29C70.8691 25.8174 71.7676 26.0811 72.8809 26.0811C73.9062 26.0811 74.7266 25.876 75.3418 25.4658C75.9668 25.0459 76.2793 24.4893 76.2793 23.7959ZM95.9082 20.251C95.9082 22.6631 95.3564 24.6064 94.2529 26.0811C93.1494 27.5557 91.6553 28.293 89.7705 28.293C87.8467 28.293 86.333 27.6826 85.2295 26.4619V34.0938H82.5195V12.1504H84.9951L85.127 13.9082C86.2305 12.541 87.7637 11.8574 89.7266 11.8574C91.6309 11.8574 93.1348 12.5752 94.2383 14.0107C95.3516 15.4463 95.9082 17.4434 95.9082 20.002V20.251ZM93.1982 19.9434C93.1982 18.1562 92.8174 16.7451 92.0557 15.71C91.2939 14.6748 90.249 14.1572 88.9209 14.1572C87.2803 14.1572 86.0498 14.8848 85.2295 16.3398V23.9131C86.04 25.3584 87.2803 26.0811 88.9502 26.0811C90.249 26.0811 91.2793 25.5684 92.041 24.543C92.8125 23.5078 93.1982 21.9746 93.1982 19.9434ZM107.026 14.582C106.616 14.5137 106.172 14.4795 105.693 14.4795C103.916 14.4795 102.71 15.2363 102.075 16.75V28H99.3652V12.1504H102.002L102.046 13.9814C102.935 12.5654 104.194 11.8574 105.825 11.8574C106.353 11.8574 106.753 11.9258 107.026 12.0625V14.582ZM112.476 28H109.766V12.1504H112.476V28ZM109.546 7.94629C109.546 7.50684 109.678 7.13574 109.941 6.83301C110.215 6.53027 110.615 6.37891 111.143 6.37891C111.67 6.37891 112.07 6.53027 112.344 6.83301C112.617 7.13574 112.754 7.50684 112.754 7.94629C112.754 8.38574 112.617 8.75195 112.344 9.04492C112.07 9.33789 111.67 9.48438 111.143 9.48438C110.615 9.48438 110.215 9.33789 109.941 9.04492C109.678 8.75195 109.546 8.38574 109.546 7.94629ZM119.39 12.1504L119.478 14.1426C120.688 12.6191 122.271 11.8574 124.224 11.8574C127.573 11.8574 129.263 13.7471 129.292 17.5264V28H126.582V17.5117C126.572 16.3691 126.309 15.5244 125.791 14.9775C125.283 14.4307 124.487 14.1572 123.403 14.1572C122.524 14.1572 121.753 14.3916 121.089 14.8604C120.425 15.3291 119.907 15.9443 119.536 16.7061V28H116.826V12.1504H119.39ZM132.734 19.9434C132.734 17.4727 133.306 15.5098 134.448 14.0547C135.591 12.5898 137.104 11.8574 138.989 11.8574C140.923 11.8574 142.432 12.541 143.516 13.9082L143.647 12.1504H146.123V27.6191C146.123 29.6699 145.513 31.2861 144.292 32.4678C143.081 33.6494 141.45 34.2402 139.399 34.2402C138.257 34.2402 137.139 33.9961 136.045 33.5078C134.951 33.0195 134.116 32.3506 133.54 31.501L134.946 29.875C136.108 31.3105 137.529 32.0283 139.209 32.0283C140.527 32.0283 141.553 31.6572 142.285 30.915C143.027 30.1729 143.398 29.1279 143.398 27.7803V26.418C142.314 27.668 140.835 28.293 138.96 28.293C137.104 28.293 135.601 27.5459 134.448 26.0518C133.306 24.5576 132.734 22.5215 132.734 19.9434ZM135.459 20.251C135.459 22.0381 135.825 23.4443 136.558 24.4697C137.29 25.4854 138.315 25.9932 139.634 25.9932C141.343 25.9932 142.598 25.2168 143.398 23.6641V16.4277C142.568 14.9141 141.323 14.1572 139.663 14.1572C138.345 14.1572 137.314 14.6699 136.572 15.6953C135.83 16.7207 135.459 18.2393 135.459 20.251Z" fill="black"/>
<path d="M163.643 20.251C163.643 22.6729 163.086 24.6211 161.973 26.0957C160.859 27.5605 159.365 28.293 157.49 28.293C155.488 28.293 153.94 27.585 152.847 26.1689L152.715 28H150.225V5.5H152.935V13.8936C154.028 12.5361 155.537 11.8574 157.461 11.8574C159.385 11.8574 160.894 12.585 161.987 14.04C163.091 15.4951 163.643 17.4873 163.643 20.0166V20.251ZM160.933 19.9434C160.933 18.0977 160.576 16.6719 159.863 15.666C159.15 14.6602 158.125 14.1572 156.787 14.1572C155 14.1572 153.716 14.9873 152.935 16.6475V23.5029C153.765 25.1631 155.059 25.9932 156.816 25.9932C158.115 25.9932 159.126 25.4902 159.849 24.4844C160.571 23.4785 160.933 21.9648 160.933 19.9434ZM166.353 19.9287C166.353 18.376 166.655 16.9795 167.261 15.7393C167.876 14.499 168.726 13.542 169.81 12.8682C170.903 12.1943 172.148 11.8574 173.545 11.8574C175.703 11.8574 177.446 12.6045 178.774 14.0986C180.112 15.5928 180.781 17.5801 180.781 20.0605V20.251C180.781 21.7939 180.483 23.1807 179.888 24.4111C179.302 25.6318 178.457 26.584 177.354 27.2676C176.26 27.9512 175 28.293 173.574 28.293C171.426 28.293 169.683 27.5459 168.345 26.0518C167.017 24.5576 166.353 22.5801 166.353 20.1191V19.9287ZM169.077 20.251C169.077 22.0088 169.482 23.4199 170.293 24.4844C171.113 25.5488 172.207 26.0811 173.574 26.0811C174.951 26.0811 176.045 25.5439 176.855 24.4697C177.666 23.3857 178.071 21.8721 178.071 19.9287C178.071 18.1904 177.656 16.7842 176.826 15.71C176.006 14.626 174.912 14.084 173.545 14.084C172.207 14.084 171.128 14.6162 170.308 15.6807C169.487 16.7451 169.077 18.2686 169.077 20.251ZM193.965 28C193.809 27.6875 193.682 27.1309 193.584 26.3301C192.324 27.6387 190.82 28.293 189.072 28.293C187.51 28.293 186.226 27.8535 185.22 26.9746C184.224 26.0859 183.726 24.9629 183.726 23.6055C183.726 21.9551 184.351 20.6758 185.601 19.7676C186.86 18.8496 188.628 18.3906 190.903 18.3906H193.54V17.1455C193.54 16.1982 193.257 15.4463 192.69 14.8896C192.124 14.3232 191.289 14.04 190.186 14.04C189.219 14.04 188.408 14.2842 187.754 14.7725C187.1 15.2607 186.772 15.8516 186.772 16.5449H184.048C184.048 15.7539 184.326 14.9922 184.883 14.2598C185.449 13.5176 186.211 12.9316 187.168 12.502C188.135 12.0723 189.194 11.8574 190.347 11.8574C192.173 11.8574 193.604 12.3164 194.639 13.2344C195.674 14.1426 196.211 15.3975 196.25 16.999V24.2939C196.25 25.749 196.436 26.9062 196.807 27.7656V28H193.965ZM189.468 25.9346C190.317 25.9346 191.123 25.7148 191.885 25.2754C192.646 24.8359 193.198 24.2646 193.54 23.5615V20.3096H191.416C188.096 20.3096 186.436 21.2812 186.436 23.2246C186.436 24.0742 186.719 24.7383 187.285 25.2168C187.852 25.6953 188.579 25.9346 189.468 25.9346ZM208.159 14.582C207.749 14.5137 207.305 14.4795 206.826 14.4795C205.049 14.4795 203.843 15.2363 203.208 16.75V28H200.498V12.1504H203.135L203.179 13.9814C204.067 12.5654 205.327 11.8574 206.958 11.8574C207.485 11.8574 207.886 11.9258 208.159 12.0625V14.582ZM209.712 19.9434C209.712 17.5117 210.288 15.5586 211.44 14.084C212.593 12.5996 214.102 11.8574 215.967 11.8574C217.822 11.8574 219.292 12.4922 220.376 13.7617V5.5H223.086V28H220.596L220.464 26.3008C219.38 27.6289 217.871 28.293 215.938 28.293C214.102 28.293 212.603 27.541 211.44 26.0371C210.288 24.5332 209.712 22.5703 209.712 20.1484V19.9434ZM212.422 20.251C212.422 22.0479 212.793 23.4541 213.535 24.4697C214.277 25.4854 215.303 25.9932 216.611 25.9932C218.33 25.9932 219.585 25.2217 220.376 23.6787V16.3984C219.565 14.9043 218.32 14.1572 216.641 14.1572C215.312 14.1572 214.277 14.6699 213.535 15.6953C212.793 16.7207 212.422 18.2393 212.422 20.251Z" fill="#9C27B0"/>
<ellipse rx="3.01442" ry="2.99244" transform="matrix(0.999996 -0.00277526 0.00281617 0.999996 111.023 8.0008)" fill="#00BCD4"/>
</svg>
