<svg width="2948" height="538" viewBox="0 0 2948 538" fill="none" xmlns="http://www.w3.org/2000/svg">
<path d="M182.285 221.522C44.0988 194.162 59.5689 241.095 38.8727 276.436C11.7633 322.736 6.14765 332.143 6.14765 332.143L494.399 460.631C632.586 487.991 665.005 429.126 685.701 393.785C712.811 347.485 722.466 328.476 722.466 328.476L182.285 221.522Z" fill="#9C27B0" fill-opacity="0.3"/>
<path d="M187.393 187.671C46.1519 173.712 60.1177 237.381 42.8933 274.546C20.3323 323.237 10.0155 334.063 10.0155 334.063L524.071 395.692C665.311 409.651 691.943 347.944 709.168 310.779C731.729 262.088 739.513 242.239 739.513 242.239L187.393 187.671Z" fill="#9C27B0" fill-opacity="0.3"/>
<path d="M199.286 153.592C60.195 153.592 40.2608 220.039 27.0996 260.181C9.8618 312.769 4.21216 334.063 4.21216 334.063H547.927C687.017 334.063 706.951 267.616 720.112 227.475C737.35 174.886 743 153.592 743 153.592H199.286Z" fill="#9C27B0"/>
<ellipse rx="100.189" ry="99.4585" transform="matrix(0.999996 -0.00277526 0.00281617 0.999996 576.576 99.7362)" fill="#00BCD4"/>
<path d="M957.391 330.945C957.391 321.18 953.68 313.628 946.258 308.289C938.966 302.82 926.141 298.133 907.781 294.227C889.552 290.32 875.034 285.633 864.227 280.164C853.549 274.695 845.607 268.185 840.398 260.633C835.32 253.081 832.781 244.096 832.781 233.68C832.781 216.362 840.073 201.714 854.656 189.734C869.37 177.755 888.12 171.766 910.906 171.766C934.865 171.766 954.266 177.951 969.109 190.32C984.083 202.69 991.57 218.51 991.57 237.781H955.242C955.242 227.885 951.01 219.357 942.547 212.195C934.214 205.034 923.667 201.453 910.906 201.453C897.755 201.453 887.469 204.318 880.047 210.047C872.625 215.776 868.914 223.263 868.914 232.508C868.914 241.232 872.365 247.807 879.266 252.234C886.167 256.661 898.602 260.893 916.57 264.93C934.669 268.966 949.318 273.784 960.516 279.383C971.714 284.982 979.982 291.753 985.32 299.695C990.789 307.508 993.523 317.078 993.523 328.406C993.523 347.286 985.971 362.456 970.867 373.914C955.763 385.242 936.167 390.906 912.078 390.906C895.151 390.906 880.177 387.911 867.156 381.922C854.135 375.932 843.914 367.599 836.492 356.922C829.201 346.115 825.555 334.461 825.555 321.961H861.688C862.339 334.07 867.156 343.706 876.141 350.867C885.255 357.898 897.234 361.414 912.078 361.414C925.75 361.414 936.688 358.68 944.891 353.211C953.224 347.612 957.391 340.19 957.391 330.945ZM1219.11 283.68C1219.11 315.841 1211.75 341.753 1197.04 361.414C1182.33 381.076 1162.4 390.906 1137.27 390.906C1111.62 390.906 1091.44 382.768 1076.73 366.492V468.25H1040.59V175.672H1073.6L1075.36 199.109C1090.07 180.88 1110.52 171.766 1136.69 171.766C1162.08 171.766 1182.13 181.336 1196.84 200.477C1211.69 219.617 1219.11 246.245 1219.11 280.359V283.68ZM1182.98 279.578C1182.98 255.75 1177.9 236.935 1167.74 223.133C1157.59 209.331 1143.65 202.43 1125.95 202.43C1104.07 202.43 1087.66 212.13 1076.73 231.531V332.508C1087.53 351.779 1104.07 361.414 1126.34 361.414C1143.65 361.414 1157.39 354.578 1167.55 340.906C1177.83 327.104 1182.98 306.661 1182.98 279.578ZM1367.35 208.094C1361.88 207.182 1355.96 206.727 1349.58 206.727C1325.88 206.727 1309.8 216.818 1301.34 237V387H1265.2V175.672H1300.36L1300.95 200.086C1312.79 181.206 1329.59 171.766 1351.34 171.766C1358.37 171.766 1363.71 172.677 1367.35 174.5V208.094ZM1440.01 387H1403.88V175.672H1440.01V387ZM1400.95 119.617C1400.95 113.758 1402.7 108.81 1406.22 104.773C1409.86 100.737 1415.2 98.7188 1422.23 98.7188C1429.27 98.7188 1434.6 100.737 1438.25 104.773C1441.9 108.81 1443.72 113.758 1443.72 119.617C1443.72 125.477 1441.9 130.359 1438.25 134.266C1434.6 138.172 1429.27 140.125 1422.23 140.125C1415.2 140.125 1409.86 138.172 1406.22 134.266C1402.7 130.359 1400.95 125.477 1400.95 119.617ZM1532.2 175.672L1533.37 202.234C1549.51 181.922 1570.61 171.766 1596.65 171.766C1641.31 171.766 1663.84 196.961 1664.23 247.352V387H1628.09V247.156C1627.96 231.922 1624.45 220.659 1617.55 213.367C1610.78 206.076 1600.16 202.43 1585.71 202.43C1573.99 202.43 1563.71 205.555 1554.85 211.805C1546 218.055 1539.1 226.258 1534.15 236.414V387H1498.02V175.672H1532.2ZM1710.12 279.578C1710.12 246.635 1717.74 220.464 1732.98 201.062C1748.21 181.531 1768.39 171.766 1793.52 171.766C1819.3 171.766 1839.42 180.88 1853.88 199.109L1855.63 175.672H1888.64V381.922C1888.64 409.266 1880.5 430.815 1864.23 446.57C1848.08 462.326 1826.34 470.203 1798.99 470.203C1783.76 470.203 1768.85 466.948 1754.27 460.438C1739.68 453.927 1728.55 445.008 1720.87 433.68L1739.62 412C1755.11 431.141 1774.06 440.711 1796.45 440.711C1814.03 440.711 1827.7 435.763 1837.47 425.867C1847.36 415.971 1852.31 402.039 1852.31 384.07V365.906C1837.86 382.573 1818.13 390.906 1793.13 390.906C1768.39 390.906 1748.34 380.945 1732.98 361.023C1717.74 341.102 1710.12 313.953 1710.12 279.578ZM1746.45 283.68C1746.45 307.508 1751.34 326.258 1761.1 339.93C1770.87 353.471 1784.54 360.242 1802.12 360.242C1824.9 360.242 1841.64 349.891 1852.31 329.188V232.703C1841.24 212.521 1824.64 202.43 1802.51 202.43C1784.93 202.43 1771.19 209.266 1761.3 222.938C1751.4 236.609 1746.45 256.857 1746.45 283.68Z" fill="black"/>
<path d="M2122.23 283.68C2122.23 315.971 2114.81 341.948 2099.97 361.609C2085.12 381.141 2065.2 390.906 2040.2 390.906C2013.51 390.906 1992.87 381.466 1978.29 362.586L1976.53 387H1943.33V87H1979.46V198.914C1994.04 180.815 2014.16 171.766 2039.81 171.766C2065.46 171.766 2085.58 181.466 2100.16 200.867C2114.88 220.268 2122.23 246.831 2122.23 280.555V283.68ZM2086.1 279.578C2086.1 254.969 2081.35 235.958 2071.84 222.547C2062.34 209.135 2048.67 202.43 2030.83 202.43C2007 202.43 1989.88 213.497 1979.46 235.633V327.039C1990.53 349.174 2007.78 360.242 2031.22 360.242C2048.54 360.242 2062.01 353.536 2071.65 340.125C2081.28 326.714 2086.1 306.531 2086.1 279.578ZM2158.37 279.383C2158.37 258.68 2162.4 240.06 2170.48 223.523C2178.68 206.987 2190.01 194.227 2204.46 185.242C2219.04 176.258 2235.65 171.766 2254.27 171.766C2283.04 171.766 2306.28 181.727 2323.99 201.648C2341.83 221.57 2350.75 248.068 2350.75 281.141V283.68C2350.75 304.253 2346.78 322.742 2338.84 339.148C2331.02 355.424 2319.76 368.12 2305.05 377.234C2290.46 386.349 2273.67 390.906 2254.66 390.906C2226.01 390.906 2202.77 380.945 2184.93 361.023C2167.22 341.102 2158.37 314.734 2158.37 281.922V279.383ZM2194.7 283.68C2194.7 307.117 2200.1 325.932 2210.91 340.125C2221.84 354.318 2236.43 361.414 2254.66 361.414C2273.02 361.414 2287.6 354.253 2298.41 339.93C2309.21 325.477 2314.62 305.294 2314.62 279.383C2314.62 256.206 2309.08 237.456 2298.02 223.133C2287.08 208.68 2272.49 201.453 2254.27 201.453C2236.43 201.453 2222.04 208.549 2211.1 222.742C2200.16 236.935 2194.7 257.247 2194.7 283.68ZM2526.53 387C2524.45 382.833 2522.76 375.411 2521.45 364.734C2504.66 382.182 2484.6 390.906 2461.3 390.906C2440.46 390.906 2423.34 385.047 2409.93 373.328C2396.65 361.479 2390.01 346.505 2390.01 328.406C2390.01 306.401 2398.34 289.344 2415.01 277.234C2431.8 264.995 2455.37 258.875 2485.71 258.875H2520.87V242.273C2520.87 229.643 2517.09 219.617 2509.54 212.195C2501.99 204.643 2490.85 200.867 2476.14 200.867C2463.25 200.867 2452.44 204.122 2443.72 210.633C2434.99 217.143 2430.63 225.021 2430.63 234.266H2394.3C2394.3 223.719 2398.02 213.562 2405.44 203.797C2412.99 193.901 2423.15 186.089 2435.91 180.359C2448.8 174.63 2462.92 171.766 2478.29 171.766C2502.64 171.766 2521.71 177.885 2535.52 190.125C2549.32 202.234 2556.48 218.966 2557 240.32V337.586C2557 356.987 2559.47 372.417 2564.42 383.875V387H2526.53ZM2466.57 359.461C2477.9 359.461 2488.64 356.531 2498.8 350.672C2508.95 344.812 2516.31 337.195 2520.87 327.82V284.461H2492.55C2448.28 284.461 2426.14 297.417 2426.14 323.328C2426.14 334.656 2429.92 343.51 2437.47 349.891C2445.02 356.271 2454.72 359.461 2466.57 359.461ZM2715.79 208.094C2710.32 207.182 2704.4 206.727 2698.02 206.727C2674.32 206.727 2658.24 216.818 2649.77 237V387H2613.64V175.672H2648.8L2649.38 200.086C2661.23 181.206 2678.03 171.766 2699.77 171.766C2706.8 171.766 2712.14 172.677 2715.79 174.5V208.094ZM2736.49 279.578C2736.49 247.156 2744.17 221.115 2759.54 201.453C2774.9 181.661 2795.02 171.766 2819.89 171.766C2844.63 171.766 2864.23 180.229 2878.68 197.156V87H2914.81V387H2881.61L2879.85 364.344C2865.4 382.052 2845.28 390.906 2819.5 390.906C2795.02 390.906 2775.03 380.88 2759.54 360.828C2744.17 340.776 2736.49 314.604 2736.49 282.312V279.578ZM2772.62 283.68C2772.62 307.638 2777.57 326.388 2787.47 339.93C2797.36 353.471 2811.04 360.242 2828.48 360.242C2851.4 360.242 2868.13 349.956 2878.68 329.383V232.312C2867.87 212.391 2851.27 202.43 2828.88 202.43C2811.17 202.43 2797.36 209.266 2787.47 222.938C2777.57 236.609 2772.62 256.857 2772.62 283.68Z" fill="#9C27B0"/>
<path d="M946.258 308.289L945.658 309.089L945.666 309.095L945.674 309.101L946.258 308.289ZM907.781 294.227L907.572 295.204L907.573 295.205L907.781 294.227ZM864.227 280.164L863.771 281.054L863.775 281.056L864.227 280.164ZM840.398 260.633L839.569 261.191L839.575 261.201L840.398 260.633ZM854.656 189.734L854.025 188.959L854.022 188.962L854.656 189.734ZM969.109 190.32L968.469 191.089L968.472 191.091L969.109 190.32ZM991.57 237.781V238.781H992.57V237.781H991.57ZM955.242 237.781H954.242V238.781H955.242V237.781ZM942.547 212.195L941.895 212.954L941.901 212.959L942.547 212.195ZM916.57 264.93L916.351 265.905L916.353 265.906L916.57 264.93ZM985.32 299.695L984.49 300.253L984.496 300.261L984.501 300.269L985.32 299.695ZM970.867 373.914L971.467 374.714L971.472 374.711L970.867 373.914ZM867.156 381.922L866.738 382.83L867.156 381.922ZM836.492 356.922L835.663 357.481L835.671 357.493L836.492 356.922ZM825.555 321.961V320.961H824.555V321.961H825.555ZM861.688 321.961L862.686 321.907L862.635 320.961H861.688V321.961ZM876.141 350.867L875.517 351.649L875.524 351.654L875.53 351.659L876.141 350.867ZM944.891 353.211L945.445 354.043L945.448 354.041L944.891 353.211ZM958.391 330.945C958.391 320.884 954.545 313.018 946.842 307.477L945.674 309.101C952.814 314.237 956.391 321.476 956.391 330.945H958.391ZM946.858 307.489C939.381 301.882 926.372 297.16 907.989 293.248L907.573 295.205C925.91 299.106 938.551 303.759 945.658 309.089L946.858 307.489ZM907.991 293.249C889.806 289.352 875.379 284.687 864.678 279.272L863.775 281.056C874.688 286.579 889.298 291.289 907.572 295.204L907.991 293.249ZM864.682 279.274C854.109 273.858 846.312 267.446 841.222 260.065L839.575 261.201C844.902 268.924 852.99 275.532 863.771 281.054L864.682 279.274ZM841.228 260.075C836.277 252.711 833.781 243.927 833.781 233.68H831.781C831.781 244.266 834.364 253.451 839.569 261.191L841.228 260.075ZM833.781 233.68C833.781 216.691 840.915 202.316 855.291 190.507L854.022 188.962C839.231 201.111 831.781 216.033 831.781 233.68H833.781ZM855.288 190.51C869.789 178.704 888.302 172.766 910.906 172.766V170.766C887.938 170.766 868.951 176.807 854.025 188.959L855.288 190.51ZM910.906 172.766C934.689 172.766 953.845 178.902 968.469 191.089L969.75 189.552C954.686 176.999 935.041 170.766 910.906 170.766V172.766ZM968.472 191.091C983.219 203.273 990.57 218.811 990.57 237.781H992.57C992.57 218.209 984.948 202.107 969.746 189.549L968.472 191.091ZM991.57 236.781H955.242V238.781H991.57V236.781ZM956.242 237.781C956.242 227.554 951.851 218.758 943.193 211.432L941.901 212.959C950.17 219.956 954.242 228.217 954.242 237.781H956.242ZM943.199 211.437C934.655 204.095 923.865 200.453 910.906 200.453V202.453C923.468 202.453 933.772 205.973 941.895 212.954L943.199 211.437ZM910.906 200.453C897.621 200.453 887.091 203.346 879.436 209.255L880.658 210.838C887.846 205.289 897.889 202.453 910.906 202.453V200.453ZM879.436 209.255C871.773 215.171 867.914 222.948 867.914 232.508H869.914C869.914 223.578 873.477 216.381 880.658 210.838L879.436 209.255ZM867.914 232.508C867.914 241.546 871.517 248.451 878.726 253.076L879.806 251.393C873.213 247.163 869.914 240.917 869.914 232.508H867.914ZM878.726 253.076C885.787 257.606 898.375 261.867 916.351 265.905L916.789 263.954C898.828 259.919 886.546 255.717 879.806 251.393L878.726 253.076ZM916.353 265.906C934.406 269.932 948.969 274.728 960.068 280.277L960.963 278.488C949.666 272.84 934.932 268 916.788 263.954L916.353 265.906ZM960.068 280.277C971.158 285.822 979.273 292.491 984.49 300.253L986.15 299.137C980.69 291.014 972.269 284.141 960.963 278.488L960.068 280.277ZM984.501 300.269C989.831 307.884 992.523 317.244 992.523 328.406H994.523C994.523 316.912 991.747 307.132 986.14 299.122L984.501 300.269ZM992.523 328.406C992.523 346.972 985.119 361.847 970.263 373.117L971.472 374.711C986.824 363.064 994.523 347.601 994.523 328.406H992.523ZM970.267 373.114C955.379 384.28 936.01 389.906 912.078 389.906V391.906C936.323 391.906 956.147 386.204 971.467 374.714L970.267 373.114ZM912.078 389.906C895.269 389.906 880.442 386.933 867.574 381.013L866.738 382.83C879.912 388.89 895.033 391.906 912.078 391.906V389.906ZM867.574 381.013C854.698 375.091 844.623 366.867 837.313 356.351L835.671 357.493C843.205 368.331 853.572 376.774 866.738 382.83L867.574 381.013ZM837.321 356.363C830.136 345.713 826.555 334.253 826.555 321.961H824.555C824.555 334.669 828.265 346.516 835.663 357.481L837.321 356.363ZM825.555 322.961H861.688V320.961H825.555V322.961ZM860.689 322.015C861.354 334.391 866.296 344.299 875.517 351.649L876.764 350.085C868.017 343.113 863.323 333.749 862.686 321.907L860.689 322.015ZM875.53 351.659C884.864 358.86 897.078 362.414 912.078 362.414V360.414C897.391 360.414 885.646 356.937 876.751 350.075L875.53 351.659ZM912.078 362.414C925.874 362.414 937.026 359.656 945.445 354.043L944.336 352.379C936.349 357.703 925.626 360.414 912.078 360.414V362.414ZM945.448 354.041C954.03 348.275 958.391 340.556 958.391 330.945H956.391C956.391 339.825 952.418 346.949 944.333 352.381L945.448 354.041ZM1076.73 366.492L1077.47 365.822L1075.73 363.895V366.492H1076.73ZM1076.73 468.25V469.25H1077.73V468.25H1076.73ZM1040.59 468.25H1039.59V469.25H1040.59V468.25ZM1040.59 175.672V174.672H1039.59V175.672H1040.59ZM1073.6 175.672L1074.6 175.597L1074.53 174.672H1073.6V175.672ZM1075.36 199.109L1074.36 199.184L1074.55 201.703L1076.14 199.737L1075.36 199.109ZM1196.84 200.477L1196.05 201.086L1196.05 201.089L1196.84 200.477ZM1076.73 231.531L1075.86 231.04L1075.73 231.269V231.531H1076.73ZM1076.73 332.508H1075.73V332.769L1075.85 332.997L1076.73 332.508ZM1167.55 340.906L1166.75 340.309L1166.74 340.31L1167.55 340.906ZM1218.11 283.68C1218.11 315.692 1210.79 341.373 1196.24 360.815L1197.84 362.013C1212.72 342.132 1220.11 315.99 1220.11 283.68H1218.11ZM1196.24 360.815C1181.72 380.217 1162.1 389.906 1137.27 389.906V391.906C1162.71 391.906 1182.93 381.934 1197.84 362.013L1196.24 360.815ZM1137.27 389.906C1111.85 389.906 1091.96 381.852 1077.47 365.822L1075.98 367.163C1090.92 383.685 1111.39 391.906 1137.27 391.906V389.906ZM1075.73 366.492V468.25H1077.73V366.492H1075.73ZM1076.73 467.25H1040.59V469.25H1076.73V467.25ZM1041.59 468.25V175.672H1039.59V468.25H1041.59ZM1040.59 176.672H1073.6V174.672H1040.59V176.672ZM1072.6 175.747L1074.36 199.184L1076.36 199.035L1074.6 175.597L1072.6 175.747ZM1076.14 199.737C1090.64 181.773 1110.78 172.766 1136.69 172.766V170.766C1110.25 170.766 1089.51 179.987 1074.58 198.481L1076.14 199.737ZM1136.69 172.766C1161.79 172.766 1181.54 182.206 1196.05 201.086L1197.64 199.867C1182.72 180.466 1162.37 170.766 1136.69 170.766V172.766ZM1196.05 201.089C1210.72 219.996 1218.11 246.378 1218.11 280.359H1220.11C1220.11 246.111 1212.66 219.239 1197.63 199.864L1196.05 201.089ZM1218.11 280.359V283.68H1220.11V280.359H1218.11ZM1183.98 279.578C1183.98 255.618 1178.87 236.57 1168.55 222.54L1166.94 223.725C1176.93 237.3 1181.98 255.882 1181.98 279.578H1183.98ZM1168.55 222.54C1158.2 208.472 1143.96 201.43 1125.95 201.43V203.43C1143.35 203.43 1156.98 210.189 1166.94 223.725L1168.55 222.54ZM1125.95 201.43C1103.7 201.43 1086.97 211.332 1075.86 231.04L1077.6 232.022C1088.36 212.929 1104.44 203.43 1125.95 203.43V201.43ZM1075.73 231.531V332.508H1077.73V231.531H1075.73ZM1075.85 332.997C1081.33 342.764 1088.29 350.131 1096.73 355.052C1105.18 359.972 1115.06 362.414 1126.34 362.414V360.414C1115.35 360.414 1105.83 358.038 1097.74 353.323C1089.65 348.609 1082.93 341.523 1077.6 332.019L1075.85 332.997ZM1126.34 362.414C1143.96 362.414 1158 355.433 1168.35 341.503L1166.74 340.31C1156.78 353.723 1143.34 360.414 1126.34 360.414V362.414ZM1168.35 341.504C1178.82 327.455 1183.98 306.762 1183.98 279.578H1181.98C1181.98 306.561 1176.85 326.753 1166.75 340.309L1168.35 341.504ZM1367.35 208.094L1367.19 209.08L1368.35 209.274V208.094H1367.35ZM1301.34 237L1300.41 236.613L1300.34 236.799V237H1301.34ZM1301.34 387V388H1302.34V387H1301.34ZM1265.2 387H1264.2V388H1265.2V387ZM1265.2 175.672V174.672H1264.2V175.672H1265.2ZM1300.36 175.672L1301.36 175.648L1301.34 174.672H1300.36V175.672ZM1300.95 200.086L1299.95 200.11L1300.03 203.433L1301.79 200.618L1300.95 200.086ZM1367.35 174.5H1368.35V173.882L1367.8 173.606L1367.35 174.5ZM1367.52 207.107C1361.99 206.186 1356.01 205.727 1349.58 205.727V207.727C1355.91 207.727 1361.78 208.179 1367.19 209.08L1367.52 207.107ZM1349.58 205.727C1337.59 205.727 1327.45 208.28 1319.21 213.448C1310.97 218.619 1304.71 226.362 1300.41 236.613L1302.26 237.387C1306.42 227.456 1312.44 220.062 1320.28 215.142C1328.12 210.218 1337.87 207.727 1349.58 207.727V205.727ZM1300.34 237V387H1302.34V237H1300.34ZM1301.34 386H1265.2V388H1301.34V386ZM1266.2 387V175.672H1264.2V387H1266.2ZM1265.2 176.672H1300.36V174.672H1265.2V176.672ZM1299.36 175.696L1299.95 200.11L1301.95 200.062L1301.36 175.648L1299.36 175.696ZM1301.79 200.618C1313.46 182.02 1329.95 172.766 1351.34 172.766V170.766C1329.24 170.766 1312.12 180.392 1300.1 199.554L1301.79 200.618ZM1351.34 172.766C1358.31 172.766 1363.46 173.674 1366.9 175.394L1367.8 173.606C1363.95 171.68 1358.43 170.766 1351.34 170.766V172.766ZM1366.35 174.5V208.094H1368.35V174.5H1366.35ZM1440.01 387V388H1441.01V387H1440.01ZM1403.88 387H1402.88V388H1403.88V387ZM1403.88 175.672V174.672H1402.88V175.672H1403.88ZM1440.01 175.672H1441.01V174.672H1440.01V175.672ZM1406.22 104.773L1405.48 104.103L1405.47 104.11L1405.46 104.117L1406.22 104.773ZM1438.25 104.773L1437.51 105.444L1438.25 104.773ZM1438.25 134.266L1437.52 133.583L1438.25 134.266ZM1406.22 134.266L1405.48 134.935L1405.48 134.941L1405.49 134.948L1406.22 134.266ZM1440.01 386H1403.88V388H1440.01V386ZM1404.88 387V175.672H1402.88V387H1404.88ZM1403.88 176.672H1440.01V174.672H1403.88V176.672ZM1439.01 175.672V387H1441.01V175.672H1439.01ZM1401.95 119.617C1401.95 113.975 1403.63 109.267 1406.97 105.43L1405.46 104.117C1401.78 108.353 1399.95 113.541 1399.95 119.617H1401.95ZM1406.96 105.444C1410.37 101.675 1415.4 99.7188 1422.23 99.7188V97.7188C1415.01 97.7188 1409.36 99.7994 1405.48 104.103L1406.96 105.444ZM1422.23 99.7188C1429.07 99.7188 1434.1 101.675 1437.51 105.444L1438.99 104.103C1435.1 99.7994 1429.46 97.7188 1422.23 97.7188V99.7188ZM1437.51 105.444C1440.97 109.282 1442.72 113.985 1442.72 119.617H1444.72C1444.72 113.531 1442.82 108.338 1438.99 104.103L1437.51 105.444ZM1442.72 119.617C1442.72 125.25 1440.97 129.881 1437.52 133.583L1438.98 134.948C1442.82 130.838 1444.72 125.703 1444.72 119.617H1442.72ZM1437.52 133.583C1434.12 137.228 1429.08 139.125 1422.23 139.125V141.125C1429.45 141.125 1435.09 139.115 1438.98 134.948L1437.52 133.583ZM1422.23 139.125C1415.39 139.125 1410.35 137.228 1406.95 133.583L1405.49 134.948C1409.38 139.115 1415.02 141.125 1422.23 141.125V139.125ZM1406.96 133.597C1403.63 129.896 1401.95 125.26 1401.95 119.617H1399.95C1399.95 125.693 1401.78 130.823 1405.48 134.935L1406.96 133.597ZM1532.2 175.672L1533.19 175.628L1533.15 174.672H1532.2V175.672ZM1533.37 202.234L1532.37 202.278L1532.49 204.95L1534.15 202.857L1533.37 202.234ZM1664.23 247.352H1665.23L1665.23 247.344L1664.23 247.352ZM1664.23 387V388H1665.23V387H1664.23ZM1628.09 387H1627.09V388H1628.09V387ZM1628.09 247.156H1629.09L1629.09 247.148L1628.09 247.156ZM1617.55 213.367L1616.81 214.048L1616.82 214.055L1617.55 213.367ZM1534.15 236.414L1533.25 235.976L1533.15 236.183V236.414H1534.15ZM1534.15 387V388H1535.15V387H1534.15ZM1498.02 387H1497.02V388H1498.02V387ZM1498.02 175.672V174.672H1497.02V175.672H1498.02ZM1531.2 175.716L1532.37 202.278L1534.37 202.19L1533.19 175.628L1531.2 175.716ZM1534.15 202.857C1550.11 182.784 1570.91 172.766 1596.65 172.766V170.766C1570.3 170.766 1548.92 181.06 1532.58 201.612L1534.15 202.857ZM1596.65 172.766C1618.79 172.766 1635.28 179.006 1646.29 191.329C1657.33 203.674 1663.03 222.291 1663.23 247.359L1665.23 247.344C1665.03 222.021 1659.27 202.846 1647.78 189.996C1636.28 177.123 1619.17 170.766 1596.65 170.766V172.766ZM1663.23 247.352V387H1665.23V247.352H1663.23ZM1664.23 386H1628.09V388H1664.23V386ZM1629.09 387V247.156H1627.09V387H1629.09ZM1629.09 247.148C1628.96 231.788 1625.42 220.23 1618.27 212.68L1616.82 214.055C1623.48 221.087 1626.96 232.056 1627.09 247.165L1629.09 247.148ZM1618.28 212.687C1611.25 205.114 1600.31 201.43 1585.71 201.43V203.43C1600.01 203.43 1610.3 207.037 1616.81 214.048L1618.28 212.687ZM1585.71 201.43C1573.8 201.43 1563.31 204.609 1554.27 210.988L1555.43 212.622C1564.1 206.501 1574.18 203.43 1585.71 203.43V201.43ZM1554.27 210.988C1545.28 217.339 1538.27 225.675 1533.25 235.976L1535.05 236.852C1539.92 226.841 1546.72 218.77 1555.43 212.622L1554.27 210.988ZM1533.15 236.414V387H1535.15V236.414H1533.15ZM1534.15 386H1498.02V388H1534.15V386ZM1499.02 387V175.672H1497.02V387H1499.02ZM1498.02 176.672H1532.2V174.672H1498.02V176.672ZM1732.98 201.062L1733.76 201.68L1733.77 201.678L1732.98 201.062ZM1853.88 199.109L1853.09 199.731L1854.68 201.735L1854.87 199.184L1853.88 199.109ZM1855.63 175.672V174.672H1854.71L1854.64 175.597L1855.63 175.672ZM1888.64 175.672H1889.64V174.672H1888.64V175.672ZM1864.23 446.57L1863.53 445.852L1863.53 445.855L1864.23 446.57ZM1754.27 460.438L1753.86 461.351L1754.27 460.438ZM1720.87 433.68L1720.11 433.026L1719.61 433.606L1720.04 434.241L1720.87 433.68ZM1739.62 412L1740.39 411.371L1739.64 410.442L1738.86 411.346L1739.62 412ZM1837.47 425.867L1836.76 425.16L1836.76 425.165L1837.47 425.867ZM1852.31 365.906H1853.31V363.227L1851.56 365.251L1852.31 365.906ZM1732.98 361.023L1732.18 361.631L1732.18 361.634L1732.98 361.023ZM1761.1 339.93L1760.29 340.511L1760.29 340.515L1761.1 339.93ZM1852.31 329.188L1853.2 329.646L1853.31 329.43V329.188H1852.31ZM1852.31 232.703H1853.31V232.447L1853.19 232.222L1852.31 232.703ZM1761.3 222.938L1760.49 222.351L1761.3 222.938ZM1711.12 279.578C1711.12 246.784 1718.71 220.854 1733.76 201.68L1732.19 200.445C1716.78 220.073 1709.12 246.486 1709.12 279.578H1711.12ZM1733.77 201.678C1748.81 182.393 1768.7 172.766 1793.52 172.766V170.766C1768.09 170.766 1747.62 180.669 1732.19 200.447L1733.77 201.678ZM1793.52 172.766C1819.04 172.766 1838.85 181.769 1853.09 199.731L1854.66 198.488C1839.99 179.992 1819.57 170.766 1793.52 170.766V172.766ZM1854.87 199.184L1856.63 175.747L1854.64 175.597L1852.88 199.035L1854.87 199.184ZM1855.63 176.672H1888.64V174.672H1855.63V176.672ZM1887.64 175.672V381.922H1889.64V175.672H1887.64ZM1887.64 381.922C1887.64 409.055 1879.57 430.323 1863.53 445.852L1864.92 447.289C1881.43 431.307 1889.64 409.476 1889.64 381.922H1887.64ZM1863.53 445.855C1847.61 461.39 1826.13 469.203 1798.99 469.203V471.203C1826.54 471.203 1848.55 463.261 1864.92 447.286L1863.53 445.855ZM1798.99 469.203C1783.91 469.203 1769.13 465.98 1754.67 459.524L1753.86 461.351C1768.56 467.915 1783.61 471.203 1798.99 471.203V469.203ZM1754.67 459.524C1740.23 453.077 1729.26 444.268 1721.69 433.118L1720.04 434.241C1727.84 445.747 1739.13 454.777 1753.86 461.351L1754.67 459.524ZM1721.62 434.334L1740.37 412.654L1738.86 411.346L1720.11 433.026L1721.62 434.334ZM1738.84 412.629C1754.5 431.978 1773.72 441.711 1796.45 441.711V439.711C1774.39 439.711 1755.72 430.303 1740.39 411.371L1738.84 412.629ZM1796.45 441.711C1814.22 441.711 1828.18 436.703 1838.18 426.57L1836.76 425.165C1827.23 434.823 1813.84 439.711 1796.45 439.711V441.711ZM1838.18 426.574C1848.31 416.442 1853.31 402.225 1853.31 384.07H1851.31C1851.31 401.853 1846.42 415.501 1836.76 425.16L1838.18 426.574ZM1853.31 384.07V365.906H1851.31V384.07H1853.31ZM1851.56 365.251C1837.32 381.668 1817.89 389.906 1793.13 389.906V391.906C1818.38 391.906 1838.4 383.478 1853.07 366.561L1851.56 365.251ZM1793.13 389.906C1768.71 389.906 1748.95 380.094 1733.77 360.413L1732.18 361.634C1747.73 381.797 1768.08 391.906 1793.13 391.906V389.906ZM1733.77 360.416C1718.71 340.723 1711.12 313.814 1711.12 279.578H1709.12C1709.12 314.092 1716.77 341.48 1732.18 361.631L1733.77 360.416ZM1745.45 283.68C1745.45 307.632 1750.36 326.612 1760.29 340.511L1761.92 339.348C1752.31 325.904 1747.45 307.384 1747.45 283.68H1745.45ZM1760.29 340.515C1770.26 354.333 1784.24 361.242 1802.12 361.242V359.242C1784.84 359.242 1771.48 352.61 1761.91 339.345L1760.29 340.515ZM1802.12 361.242C1813.67 361.242 1823.73 358.617 1832.28 353.329C1840.83 348.041 1847.8 340.129 1853.2 329.646L1851.42 328.729C1846.15 338.949 1839.42 346.564 1831.23 351.628C1823.05 356.691 1813.35 359.242 1802.12 359.242V361.242ZM1853.31 329.188V232.703H1851.31V329.188H1853.31ZM1853.19 232.222C1847.59 222.006 1840.56 214.296 1832.08 209.144C1823.6 203.99 1813.73 201.43 1802.51 201.43V203.43C1813.42 203.43 1822.92 205.915 1831.04 210.853C1839.17 215.792 1845.97 223.218 1851.44 233.184L1853.19 232.222ZM1802.51 201.43C1784.62 201.43 1770.58 208.407 1760.49 222.351L1762.11 223.524C1771.81 210.124 1785.23 203.43 1802.51 203.43V201.43ZM1760.49 222.351C1750.41 236.268 1745.45 256.761 1745.45 283.68H1747.45C1747.45 256.953 1752.39 236.951 1762.11 223.524L1760.49 222.351ZM2099.97 361.609L2100.76 362.214L2100.77 362.212L2099.97 361.609ZM1978.29 362.586L1979.08 361.975L1977.48 359.902L1977.29 362.514L1978.29 362.586ZM1976.53 387V388H1977.46L1977.53 387.072L1976.53 387ZM1943.33 387H1942.33V388H1943.33V387ZM1943.33 87V86H1942.33V87H1943.33ZM1979.46 87H1980.46V86H1979.46V87ZM1979.46 198.914H1978.46V201.749L1980.24 199.541L1979.46 198.914ZM2100.16 200.867L2099.36 201.468L2099.37 201.471L2100.16 200.867ZM1979.46 235.633L1978.56 235.207L1978.46 235.409V235.633H1979.46ZM1979.46 327.039H1978.46V327.275L1978.57 327.486L1979.46 327.039ZM2121.23 283.68C2121.23 315.821 2113.85 341.566 2099.17 361.007L2100.77 362.212C2115.78 342.33 2123.23 316.121 2123.23 283.68H2121.23ZM2099.17 361.004C2084.52 380.281 2064.9 389.906 2040.2 389.906V391.906C2065.51 391.906 2085.73 382 2100.76 362.214L2099.17 361.004ZM2040.2 389.906C2013.78 389.906 1993.45 380.578 1979.08 361.975L1977.5 363.197C1992.29 382.354 2013.24 391.906 2040.2 391.906V389.906ZM1977.29 362.514L1975.53 386.928L1977.53 387.072L1979.29 362.658L1977.29 362.514ZM1976.53 386H1943.33V388H1976.53V386ZM1944.33 387V87H1942.33V387H1944.33ZM1943.33 88H1979.46V86H1943.33V88ZM1978.46 87V198.914H1980.46V87H1978.46ZM1980.24 199.541C1994.61 181.705 2014.43 172.766 2039.81 172.766V170.766C2013.89 170.766 1993.48 179.926 1978.68 198.287L1980.24 199.541ZM2039.81 172.766C2065.17 172.766 2084.98 182.335 2099.36 201.468L2100.96 200.266C2086.18 180.598 2065.76 170.766 2039.81 170.766V172.766ZM2099.37 201.471C2113.91 220.643 2121.23 246.967 2121.23 280.555H2123.23C2123.23 246.695 2115.85 219.894 2100.96 200.263L2099.37 201.471ZM2121.23 280.555V283.68H2123.23V280.555H2121.23ZM2087.1 279.578C2087.1 254.859 2082.33 235.614 2072.66 221.969L2071.03 223.125C2080.37 236.303 2085.1 255.079 2085.1 279.578H2087.1ZM2072.66 221.969C2062.95 208.267 2048.96 201.43 2030.83 201.43V203.43C2048.37 203.43 2061.73 210.004 2071.03 223.125L2072.66 221.969ZM2030.83 201.43C2018.75 201.43 2008.32 204.236 1999.57 209.891C1990.83 215.545 1983.83 224.004 1978.56 235.207L1980.37 236.059C1985.51 225.126 1992.28 216.984 2000.66 211.57C2009.03 206.158 2019.07 203.43 2030.83 203.43V201.43ZM1978.46 235.633V327.039H1980.46V235.633H1978.46ZM1978.57 327.486C1984.16 338.682 1991.35 347.134 2000.16 352.783C2008.97 358.435 2019.34 361.242 2031.22 361.242V359.242C2019.66 359.242 2009.68 356.516 2001.24 351.1C1992.79 345.681 1985.83 337.532 1980.36 326.592L1978.57 327.486ZM2031.22 361.242C2048.84 361.242 2062.63 354.396 2072.46 340.708L2070.84 339.542C2061.4 352.677 2048.23 359.242 2031.22 359.242V361.242ZM2072.46 340.708C2082.27 327.05 2087.1 306.62 2087.1 279.578H2085.1C2085.1 306.443 2080.29 326.377 2070.84 339.542L2072.46 340.708ZM2170.48 223.523L2169.58 223.079L2169.58 223.085L2170.48 223.523ZM2204.46 185.242L2203.94 184.391L2203.93 184.393L2204.46 185.242ZM2323.99 201.648L2323.24 202.313L2323.25 202.316L2323.99 201.648ZM2338.84 339.148L2337.94 338.713L2337.93 338.716L2338.84 339.148ZM2305.05 377.234L2304.52 376.384L2304.52 376.386L2305.05 377.234ZM2184.93 361.023L2184.18 361.688L2184.18 361.691L2184.93 361.023ZM2210.91 340.125L2210.11 340.731L2210.11 340.735L2210.91 340.125ZM2298.41 339.93L2299.2 340.532L2299.21 340.529L2298.41 339.93ZM2298.02 223.133L2297.22 223.736L2297.22 223.744L2298.02 223.133ZM2159.37 279.383C2159.37 258.813 2163.38 240.346 2171.38 223.962L2169.58 223.085C2161.43 239.774 2157.37 258.547 2157.37 279.383H2159.37ZM2171.37 223.968C2179.5 207.583 2190.71 194.969 2204.99 186.091L2203.93 184.393C2189.31 193.484 2177.86 206.391 2169.58 223.079L2171.37 223.968ZM2204.99 186.094C2219.4 177.215 2235.81 172.766 2254.27 172.766V170.766C2235.48 170.766 2218.69 175.301 2203.94 184.391L2204.99 186.094ZM2254.27 172.766C2282.78 172.766 2305.74 182.623 2323.24 202.313L2324.74 200.984C2306.83 180.83 2283.3 170.766 2254.27 170.766V172.766ZM2323.25 202.316C2340.89 222.013 2349.75 248.253 2349.75 281.141H2351.75C2351.75 247.882 2342.78 221.127 2324.74 200.981L2323.25 202.316ZM2349.75 281.141V283.68H2351.75V281.141H2349.75ZM2349.75 283.68C2349.75 304.121 2345.8 322.459 2337.94 338.713L2339.74 339.584C2347.75 323.026 2351.75 304.384 2351.75 283.68H2349.75ZM2337.93 338.716C2330.2 354.828 2319.06 367.375 2304.52 376.384L2305.57 378.084C2320.46 368.865 2331.85 356.021 2339.74 339.581L2337.93 338.716ZM2304.52 376.386C2290.11 385.391 2273.5 389.906 2254.66 389.906V391.906C2273.83 391.906 2290.82 387.307 2305.58 378.082L2304.52 376.386ZM2254.66 389.906C2226.27 389.906 2203.31 380.05 2185.67 360.356L2184.18 361.691C2202.23 381.841 2225.75 391.906 2254.66 391.906V389.906ZM2185.68 360.359C2168.17 340.66 2159.37 314.548 2159.37 281.922H2157.37C2157.37 314.92 2166.28 341.543 2184.18 361.688L2185.68 360.359ZM2159.37 281.922V279.383H2157.37V281.922H2159.37ZM2193.7 283.68C2193.7 307.267 2199.13 326.316 2210.11 340.731L2211.7 339.519C2201.06 325.548 2195.7 306.967 2195.7 283.68H2193.7ZM2210.11 340.735C2221.24 355.179 2236.12 362.414 2254.66 362.414V360.414C2236.73 360.414 2222.44 353.457 2211.7 339.515L2210.11 340.735ZM2254.66 362.414C2273.32 362.414 2288.2 355.112 2299.2 340.532L2297.61 339.327C2286.99 353.393 2272.71 360.414 2254.66 360.414V362.414ZM2299.21 340.529C2310.19 325.842 2315.62 305.419 2315.62 279.383H2313.62C2313.62 305.169 2308.24 325.111 2297.61 339.331L2299.21 340.529ZM2315.62 279.383C2315.62 256.047 2310.04 237.063 2298.81 222.521L2297.22 223.744C2308.12 237.848 2313.62 256.364 2313.62 279.383H2315.62ZM2298.81 222.529C2287.69 207.825 2272.81 200.453 2254.27 200.453V202.453C2272.18 202.453 2286.47 209.535 2297.22 223.736L2298.81 222.529ZM2254.27 200.453C2236.12 200.453 2221.44 207.695 2210.31 222.132L2211.89 223.353C2222.64 209.404 2236.74 202.453 2254.27 202.453V200.453ZM2210.31 222.132C2199.19 236.565 2193.7 257.127 2193.7 283.68H2195.7C2195.7 257.368 2201.14 237.305 2211.89 223.353L2210.31 222.132ZM2526.53 387L2525.64 387.447L2525.91 388H2526.53V387ZM2521.45 364.734L2522.45 364.613L2522.19 362.526L2520.73 364.041L2521.45 364.734ZM2409.93 373.328L2409.26 374.074L2409.27 374.081L2409.93 373.328ZM2415.01 277.234L2415.6 278.043L2415.6 278.043L2415.01 277.234ZM2520.87 258.875V259.875H2521.87V258.875H2520.87ZM2509.54 212.195L2508.83 212.902L2508.84 212.909L2509.54 212.195ZM2430.63 234.266V235.266H2431.63V234.266H2430.63ZM2394.3 234.266H2393.3V235.266H2394.3V234.266ZM2405.44 203.797L2404.64 203.19L2404.64 203.192L2405.44 203.797ZM2435.91 180.359L2435.5 179.446L2435.5 179.447L2435.91 180.359ZM2535.52 190.125L2534.85 190.873L2534.86 190.877L2535.52 190.125ZM2557 240.32H2558V240.308L2558 240.296L2557 240.32ZM2564.42 383.875H2565.42V383.668L2565.34 383.479L2564.42 383.875ZM2564.42 387V388H2565.42V387H2564.42ZM2520.87 327.82L2521.77 328.258L2521.87 328.05V327.82H2520.87ZM2520.87 284.461H2521.87V283.461H2520.87V284.461ZM2437.47 349.891L2436.82 350.655L2437.47 349.891ZM2527.43 386.553C2525.43 382.555 2523.75 375.287 2522.45 364.613L2520.46 364.855C2521.76 375.536 2523.47 383.112 2525.64 387.447L2527.43 386.553ZM2520.73 364.041C2504.12 381.302 2484.32 389.906 2461.3 389.906V391.906C2484.89 391.906 2505.2 383.063 2522.17 365.428L2520.73 364.041ZM2461.3 389.906C2440.66 389.906 2423.79 384.108 2410.59 372.575L2409.27 374.081C2422.9 385.986 2440.26 391.906 2461.3 391.906V389.906ZM2410.6 372.582C2397.53 360.926 2391.01 346.226 2391.01 328.406H2389.01C2389.01 346.785 2395.77 362.032 2409.26 374.074L2410.6 372.582ZM2391.01 328.406C2391.01 306.696 2399.21 289.95 2415.6 278.043L2414.42 276.425C2397.47 288.737 2389.01 306.106 2389.01 328.406H2391.01ZM2415.6 278.043C2432.16 265.973 2455.49 259.875 2485.71 259.875V257.875C2455.25 257.875 2431.45 264.016 2414.42 276.426L2415.6 278.043ZM2485.71 259.875H2520.87V257.875H2485.71V259.875ZM2521.87 258.875V242.273H2519.87V258.875H2521.87ZM2521.87 242.273C2521.87 229.431 2518.02 219.128 2510.24 211.482L2508.84 212.909C2516.16 220.107 2519.87 229.856 2519.87 242.273H2521.87ZM2510.25 211.488C2502.44 203.687 2491.02 199.867 2476.14 199.867V201.867C2490.69 201.867 2501.53 205.6 2508.83 212.902L2510.25 211.488ZM2476.14 199.867C2463.08 199.867 2452.05 203.17 2443.12 209.831L2444.32 211.434C2452.84 205.075 2463.42 201.867 2476.14 201.867V199.867ZM2443.12 209.831C2434.19 216.493 2429.63 224.647 2429.63 234.266H2431.63C2431.63 225.395 2435.79 217.794 2444.32 211.434L2443.12 209.831ZM2430.63 233.266H2394.3V235.266H2430.63V233.266ZM2395.3 234.266C2395.3 223.972 2398.92 214.023 2406.23 204.402L2404.64 203.192C2397.11 213.102 2393.3 223.466 2393.3 234.266H2395.3ZM2406.23 204.404C2413.67 194.656 2423.69 186.941 2436.32 181.272L2435.5 179.447C2422.6 185.236 2412.31 193.146 2404.64 203.19L2406.23 204.404ZM2436.31 181.273C2449.06 175.606 2463.05 172.766 2478.29 172.766V170.766C2462.8 170.766 2448.53 173.655 2435.5 179.446L2436.31 181.273ZM2478.29 172.766C2502.47 172.766 2521.28 178.842 2534.85 190.873L2536.18 189.377C2522.14 176.929 2502.8 170.766 2478.29 170.766V172.766ZM2534.86 190.877C2548.41 202.771 2555.49 219.22 2556 240.345L2558 240.296C2557.47 218.712 2550.22 201.698 2536.18 189.373L2534.86 190.877ZM2556 240.32V337.586H2558V240.32H2556ZM2556 337.586C2556 357.056 2558.48 372.638 2563.5 384.271L2565.34 383.479C2560.47 372.195 2558 356.918 2558 337.586H2556ZM2563.42 383.875V387H2565.42V383.875H2563.42ZM2564.42 386H2526.53V388H2564.42V386ZM2466.57 360.461C2478.08 360.461 2488.99 357.482 2499.3 351.538L2498.3 349.806C2488.29 355.581 2477.72 358.461 2466.57 358.461V360.461ZM2499.3 351.538C2509.6 345.592 2517.11 337.834 2521.77 328.258L2519.97 327.383C2515.51 336.556 2508.3 344.033 2498.3 349.806L2499.3 351.538ZM2521.87 327.82V284.461H2519.87V327.82H2521.87ZM2520.87 283.461H2492.55V285.461H2520.87V283.461ZM2492.55 283.461C2470.35 283.461 2453.53 286.704 2442.24 293.315C2430.86 299.974 2425.14 310.022 2425.14 323.328H2427.14C2427.14 310.723 2432.49 301.337 2443.25 295.041C2454.09 288.696 2470.48 285.461 2492.55 285.461V283.461ZM2425.14 323.328C2425.14 334.903 2429.01 344.055 2436.82 350.655L2438.11 349.127C2430.82 342.965 2427.14 334.41 2427.14 323.328H2425.14ZM2436.82 350.655C2444.59 357.216 2454.53 360.461 2466.57 360.461V358.461C2454.91 358.461 2445.45 355.326 2438.11 349.127L2436.82 350.655ZM2715.79 208.094L2715.62 209.08L2716.79 209.274V208.094H2715.79ZM2649.77 237L2648.85 236.613L2648.77 236.799V237H2649.77ZM2649.77 387V388H2650.77V387H2649.77ZM2613.64 387H2612.64V388H2613.64V387ZM2613.64 175.672V174.672H2612.64V175.672H2613.64ZM2648.8 175.672L2649.8 175.648L2649.77 174.672H2648.8V175.672ZM2649.38 200.086L2648.38 200.11L2648.46 203.433L2650.23 200.618L2649.38 200.086ZM2715.79 174.5H2716.79V173.882L2716.24 173.606L2715.79 174.5ZM2715.95 207.107C2710.42 206.186 2704.44 205.727 2698.02 205.727V207.727C2704.35 207.727 2710.22 208.179 2715.62 209.08L2715.95 207.107ZM2698.02 205.727C2686.03 205.727 2675.89 208.28 2667.65 213.448C2659.41 218.619 2653.15 226.362 2648.85 236.613L2650.7 237.387C2654.86 227.456 2660.87 220.062 2668.71 215.142C2676.56 210.218 2686.31 207.727 2698.02 207.727V205.727ZM2648.77 237V387H2650.77V237H2648.77ZM2649.77 386H2613.64V388H2649.77V386ZM2614.64 387V175.672H2612.64V387H2614.64ZM2613.64 176.672H2648.8V174.672H2613.64V176.672ZM2647.8 175.696L2648.38 200.11L2650.38 200.062L2649.8 175.648L2647.8 175.696ZM2650.23 200.618C2661.9 182.02 2678.38 172.766 2699.77 172.766V170.766C2677.67 170.766 2660.56 180.392 2648.54 199.554L2650.23 200.618ZM2699.77 172.766C2706.75 172.766 2711.9 173.674 2715.34 175.394L2716.24 173.606C2712.38 171.68 2706.86 170.766 2699.77 170.766V172.766ZM2714.79 174.5V208.094H2716.79V174.5H2714.79ZM2759.54 201.453L2760.33 202.069L2760.33 202.066L2759.54 201.453ZM2878.68 197.156L2877.92 197.806L2879.68 199.867V197.156H2878.68ZM2878.68 87V86H2877.68V87H2878.68ZM2914.81 87H2915.81V86H2914.81V87ZM2914.81 387V388H2915.81V387H2914.81ZM2881.61 387L2880.61 387.077L2880.68 388H2881.61V387ZM2879.85 364.344L2880.85 364.266L2880.66 361.777L2879.08 363.711L2879.85 364.344ZM2759.54 360.828L2758.75 361.436L2758.75 361.44L2759.54 360.828ZM2878.68 329.383L2879.57 329.839L2879.68 329.624V329.383H2878.68ZM2878.68 232.312H2879.68V232.059L2879.56 231.836L2878.68 232.312ZM2787.47 222.938L2786.66 222.351L2787.47 222.938ZM2737.49 279.578C2737.49 247.312 2745.14 221.508 2760.33 202.069L2758.75 200.837C2743.21 220.721 2735.49 247 2735.49 279.578H2737.49ZM2760.33 202.066C2775.51 182.517 2795.33 172.766 2819.89 172.766V170.766C2794.71 170.766 2774.3 180.806 2758.75 200.84L2760.33 202.066ZM2819.89 172.766C2844.37 172.766 2863.68 181.127 2877.92 197.806L2879.44 196.507C2864.77 179.331 2844.89 170.766 2819.89 170.766V172.766ZM2879.68 197.156V87H2877.68V197.156H2879.68ZM2878.68 88H2914.81V86H2878.68V88ZM2913.81 87V387H2915.81V87H2913.81ZM2914.81 386H2881.61V388H2914.81V386ZM2882.61 386.923L2880.85 364.266L2878.85 364.421L2880.61 387.077L2882.61 386.923ZM2879.08 363.711C2864.84 381.155 2845.02 389.906 2819.5 389.906V391.906C2845.54 391.906 2865.96 382.949 2880.63 364.976L2879.08 363.711ZM2819.5 389.906C2795.34 389.906 2775.64 380.034 2760.33 360.217L2758.75 361.44C2774.42 381.727 2794.7 391.906 2819.5 391.906V389.906ZM2760.33 360.22C2745.14 340.386 2737.49 314.446 2737.49 282.312H2735.49C2735.49 314.762 2743.21 341.166 2758.75 361.436L2760.33 360.22ZM2737.49 282.312V279.578H2735.49V282.312H2737.49ZM2771.62 283.68C2771.62 307.762 2776.6 326.747 2786.66 340.52L2788.28 339.34C2778.55 326.029 2773.62 307.514 2773.62 283.68H2771.62ZM2786.66 340.52C2796.75 354.331 2810.73 361.242 2828.48 361.242V359.242C2811.34 359.242 2797.97 352.612 2788.28 339.34L2786.66 340.52ZM2828.48 361.242C2840.1 361.242 2850.2 358.634 2858.74 353.379C2867.29 348.124 2874.23 340.259 2879.57 329.839L2877.79 328.927C2872.58 339.079 2865.88 346.644 2857.7 351.675C2849.51 356.707 2839.79 359.242 2828.48 359.242V361.242ZM2879.68 329.383V232.312H2877.68V329.383H2879.68ZM2879.56 231.836C2874.08 221.745 2867.12 214.13 2858.64 209.043C2850.16 203.955 2840.23 201.43 2828.88 201.43V203.43C2839.92 203.43 2849.49 205.884 2857.61 210.758C2865.73 215.632 2872.47 222.958 2877.8 232.789L2879.56 231.836ZM2828.88 201.43C2810.86 201.43 2796.75 208.405 2786.66 222.351L2788.28 223.524C2797.98 210.126 2811.47 203.43 2828.88 203.43V201.43ZM2786.66 222.351C2776.59 236.268 2771.62 256.761 2771.62 283.68H2773.62C2773.62 256.953 2778.56 236.951 2788.28 223.524L2786.66 222.351Z" fill="black" fill-opacity="0.6"/>
</svg>
